<?xml version="1.0" encoding="UTF-8"?>
<svg id="Layer_1" xmlns="http://www.w3.org/2000/svg" version="1.1" viewBox="0 0 1080 1080">
  <!-- Generator: Adobe Illustrator 30.0.0, SVG Export Plug-In . SVG Version: 2.1.1 Build 123)  -->
  <defs>
    <style>
      .st0 {
        fill: #f478dd;
      }
    </style>
  </defs>
  <path class="st0" d="M500.96,408.74c-20.34,5.31-38.75,15.27-54.02,28.86-16.48-54.18-32.88-108.29-49.36-162.47,22.43-6.03,44.94-12.06,67.45-18.09,11.98,50.57,23.96,101.13,35.94,151.7Z"/>
  <path class="st0" d="M614.63,257.2c-13.59,51.13-27.17,102.42-40.84,153.55-12.54-4.02-25.97-6.19-39.8-6.19-6.91,0-13.67.56-20.26,1.61,10.93-54.91,21.95-109.98,32.96-164.97,22.67,5.31,45.34,10.61,67.93,16Z"/>
  <path class="st0" d="M739.32,324.57c-37.22,39.79-74.44,79.43-111.67,119.22-14.07-14.31-31.43-25.4-50.89-32.08,36.82-44.38,73.56-88.91,110.22-133.37,17.45,15.44,34.89,30.87,52.34,46.23Z"/>
  <path class="st0" d="M818.99,468.95c-52.74,10.77-105.48,21.55-158.21,32.4-5.47-20.34-15.84-38.75-29.67-53.86l171.96-46.55c5.31,22.67,10.61,45.34,15.92,68.01Z"/>
  <path class="st0" d="M827.76,547.9c-6.27,22.43-12.54,44.86-18.81,67.29-49.2-15.36-98.48-30.63-147.68-45.9,2.73-10.61,4.18-21.79,4.18-33.28,0-9.73-1.04-19.21-3.05-28.3,55.15,13.35,110.22,26.77,165.37,40.2Z"/>
  <path class="st0" d="M790.45,692.85c-16.08,16.8-32.08,33.68-48.16,50.57-38.19-38.51-76.21-77.02-114.4-115.44,14.15-14.47,25-32.24,31.27-52.01,43.73,38.91,87.55,77.82,131.28,116.89Z"/>
  <path class="st0" d="M671.39,802.26c-22.51,5.71-45.1,11.34-67.69,17.04-11.5-52.26-22.99-104.51-34.57-156.69,20.26-5.55,38.59-15.92,53.62-29.75,16.24,56.52,32.4,112.87,48.64,169.39Z"/>
  <path class="st0" d="M553.13,666c-6.19,54.99-12.46,109.82-18.73,164.81-23.07-3.38-46.07-6.83-69.06-10.21,9.24-51.93,18.41-103.79,27.65-155.72.24-1.29.4-2.49.64-3.78.88.32,1.77.56,2.65.8,11.98,3.62,24.6,5.55,37.7,5.55,6.51,0,12.86-.48,19.13-1.45Z"/>
  <path class="st0" d="M496.29,661.9c-1.12.96-2.17,1.93-3.3,2.97-42.05,37.3-84.17,74.69-126.14,111.99-14.87-17.85-29.75-35.78-44.62-53.7,39.79-31.19,79.75-62.39,119.54-93.5,14.39,14.23,32.16,25.08,51.85,31.43.88.32,1.77.56,2.65.8Z"/>
  <path class="st0" d="M433.75,620.98c-53.3,15.92-106.6,31.84-159.9,47.75-5.87-22.51-11.82-45.02-17.77-67.53,50-11.58,100.01-23.15,150.01-34.81,4.82,20.5,14.47,39.07,27.66,54.59Z"/>
  <path class="st0" d="M402.56,536c0,6.11.4,12.22,1.29,18.09-54.51-12.14-109.09-24.2-163.6-36.34,5.79-22.51,11.58-45.02,17.36-67.61,50.57,14.63,101.22,29.18,151.86,43.81-4.5,13.18-6.91,27.33-6.91,42.05Z"/>
  <path class="st0" d="M444.84,439.45c-14.71,13.59-26.29,30.39-33.52,49.36-44.7-36.66-89.48-73.4-134.18-110.14,15.36-17.53,30.71-34.97,46.07-52.42,40.52,37.7,81.12,75.49,121.63,113.19Z"/>
</svg>