<svg xmlns="http://www.w3.org/2000/svg" width="1311" height="445" fill="none"><path fill="#F377DE" d="M1194.42 46.536c-66.28 5.513-132.46 10.902-198.741 16.446-3.263-16.292-6.526-32.553-9.789-48.846a2110 2110 0 0 1 103.83-9.485c34.45-2.31 67.64-3.696 99.53-4.343 1.72 15.43 3.45 30.829 5.17 46.259z"/><path fill="#fff" d="M23.396 370.469h12.283l23.18 58.916H48.547l-5.234-13.643H15.392l-5.233 13.643H.308zm16.716 37.111-6.619-17.247c-.77-2.063-2.74-7.822-3.94-11.518h-.524c-1.108 3.449-3.017 8.931-4.032 11.518L18.47 407.58zm20.871 26.61c0-5.082 3.356-8.069 7.05-9.702-2.74-1.293-4.556-3.788-4.556-6.868 0-4.127 3.601-6.96 7.727-7.73-4.033-2.649-6.342-6.776-6.342-11.765 0-8.931 6.619-14.937 18.87-14.937 3.51 0 6.68.524 9.267 1.448 4.032-2.064 5.572-5.328 5.849-7.823h8.742c-.092 5.667-3.509 9.794-9.174 10.995 2.833 2.648 4.28 6.283 4.28 10.317 0 9.024-6.342 14.937-18.532 14.937h-7.05c-2.74 0-4.556 1.201-4.556 3.45 0 1.971 1.724 3.357 4.371 3.357h19.056c6.68 0 11.513 4.989 11.513 11.764 0 7.546-6.28 13.398-15.361 13.398H72.743c-6.28 0-11.76-3.943-11.76-10.811zm31.061 4.219c3.602 0 6.434-2.31 6.434-5.421 0-3.449-2.401-5.482-5.48-5.482h-17.33c-3.172 0-5.665 2.31-5.665 5.482s2.401 5.421 5.664 5.421h16.408zm1.817-40.284c0-5.328-3.356-8.408-10.036-8.408s-10.036 3.08-10.036 8.408 3.356 8.5 10.036 8.5 10.035-3.172 10.035-8.5m18.102 8.686c0-16.231 7.203-23.623 21.271-23.623 12.776 0 19.579 7.207 19.579 22.421v3.45h-31.677c.246 9.794 3.848 14.259 12.006 14.259 6.619 0 10.744-3.511 10.744-9.547h8.742c0 10.656-7.727 16.662-19.578 16.662-13.976 0-21.118-7.392-21.118-23.622zm31.492-4.312c0-8.839-4.125-12.104-10.375-12.104-7.388 0-11.082 3.788-11.759 12.104zm18.47-18.294h7.388l.77 6.437h.616c3.355-4.897 8.25-7.484 14.776-7.484 8.589 0 14.499 4.034 14.499 15.368v30.829h-8.927v-29.443c0-6.961-3.602-8.932-8.928-8.932-6.187 0-11.236 4.805-11.236 11.95v26.455h-8.927v-45.18zm46.699 22.606c0-16.046 6.958-23.623 20.503-23.623 12.282 0 18.624 6.345 18.624 17.863h-9.02c0-7.114-2.924-10.563-9.789-10.563-7.204 0-11.144 4.712-11.144 15.614v1.448c0 10.563 3.694 15.553 11.513 15.553 6.68 0 9.79-3.881 9.79-10.564h8.681c0 10.718-6.342 17.863-18.717 17.863-13.576 0-20.441-7.484-20.441-23.622zm46.608 37.357v-6.437h4.279c3.848 0 7.911-2.587 9.881-8.315l-17.608-45.181h9.358l8.743 22.514c1.2 3.079 3.017 9.177 4.032 12.873h.431c.955-3.511 2.74-9.455 3.787-12.781l7.296-22.575h9.112l-15.269 43.456c-3.448 9.794-7.727 17.339-17.609 17.339-3.509 0-5.91-.677-6.433-.862zm-65.355-117.001H0V0h183.042c21.149 0 39.126 3.11 53.934 9.27q22.21 9.286 34.17 27.349c7.973 12.042 11.944 26.702 11.944 43.948 0 19.219-5.603 35.48-16.839 48.846s-29.368 21.497-54.426 24.423v3.418c27.983 3.265 48.823 11.95 62.461 26.117 13.668 14.167 20.502 31.999 20.502 53.465 0 18.572-4.063 34.679-12.19 48.353-8.127 13.675-20.01 24.084-35.618 31.26-15.607 7.176-34.662 10.749-57.104 10.749zM52.241 47.367v89.838h123.474c18.563 0 32.385-3.665 41.497-10.995s13.668-18.633 13.668-33.94-4.402-26.609-13.175-33.939-22.288-10.995-40.512-10.995H52.24zm0 133.294V279.8h131.786c19.517 0 34.078-3.973 43.683-11.95q14.407-11.965 14.407-38.343c0-17.586-4.803-29.69-14.407-37.358-9.605-7.638-24.166-11.488-43.683-11.488zm329.45 146.506h-52.733V84.479h48.331v68.864l4.402 2.433z"/><path fill="#fff" d="M381.691 190.917h-11.728v-41.023c2.432-5.913 4.894-11.796 7.326-17.709a113.7 113.7 0 0 1 11.791-18.202c2.893-3.634 6.526-8.192 12.005-12.812 1.94-1.663 8.589-7.083 20.872-12.319 8.004-3.388 22.441-9.27 42.205-9.27 18.563 0 33.678 3.911 45.406 11.734s20.256 18.232 25.613 31.26 8.065 27.195 8.065 42.47v31.753h-52.24v-21.497c0-17.586-3.91-30.428-11.729-38.59-7.819-8.13-20.841-12.196-39.034-12.196-20.841 0-35.802 5.698-44.914 17.093s-13.668 27.842-13.668 49.308zM629.133 84.479h-52.702v242.688h52.702zm88.843 242.688h-62.953l104.45-120.112v-2.926l-104.45-119.65h63.938l80.531 91.809h2.925l79.546-91.809h63.446l-104.45 118.665v2.925l104.45 121.098H881.47l-80.531-92.763h-3.417zm375.354 4.897c-26.36 0-49.47-4.897-69.3-14.66-19.85-9.763-35.216-24.084-46.113-42.963q-16.347-28.319-16.347-68.372c0-26.702 5.449-47.521 16.347-66.4 10.897-18.879 26.103-33.601 45.623-44.195 19.52-10.564 42.45-15.861 68.83-15.861s47.1 4.466 66.13 13.428c19.02 8.962 33.83 21.959 44.42 39.052 10.56 17.092 15.85 38.004 15.85 62.735 0 4.219-.15 8.223-.49 11.95a124 124 0 0 1-1.48 10.995H995.217v-29.289h186.953l-13.67 18.078c.31-3.265.49-6.437.49-9.517v-9.516c0-22.452-6.43-39.144-19.27-50.047-12.87-10.902-32.29-16.354-58.33-16.354-28.97 0-49.63 6.684-62 20.019-12.38 13.366-18.57 32.554-18.57 57.623v12.689q0 38.066 18.57 58.116c12.37 13.366 33.18 20.018 62.46 20.018 25.36 0 43.68-3.973 54.92-11.949 11.23-7.977 16.84-19.126 16.84-33.447v-3.911h52.7v4.404c0 17.247-5.3 32.461-15.86 45.643-10.59 13.181-25.05 23.437-43.43 30.767s-39.62 10.995-63.69 10.995zm217.67-4.897h-52.7V0h52.7z"/></svg>