<svg xmlns="http://www.w3.org/2000/svg" width="458" height="381" fill="none"><g fill="#F377DE" stroke="#F377DE" stroke-miterlimit="10" clip-path="url(#a)"><path d="M145.8 161.333c4.756-3.796 9.941-6.902 15.634-8.954-.532-2.519.471-5.347.452-7.62-.056-7.042-5.227-10.664-7.87-16.454-7.53-16.482 2.979-37.189 21.588-35.773 9.81.747 19.48 5.366 20.226 16.666.14 2.124-.648 3.203-.723 4.807-.228 4.778 1.581 11.285 1.255 17.277-.397 7.215-1.231 18.226-10.034 18.886-.378.029-3.726-1.079-3.022.332.238.482 8.542 2.577 10.02 3.126 25.463 9.518 20.833 31.169 21.654 54.149.018.583-.35 1.792.461 1.676 10.318-23.129 22.124-53.465 50.715-55.401l.527-1.84c-7.562-3.492-8.355-15.837-7.94-23.375.116-2.138 1.753-9.888 1.45-10.991-.126-.458-1.175-.338-1.669-.752-3.493-2.89-.667-9.489 1.254-12.692 9.241-15.394 33.342-9.541 38.802 6.421 2.513 7.35.77 18.77-3.567 25.167-1.231 1.811-3.086 2.649-3.725 4.816-1.156 3.95.228 9.2-.662 13.333 10.943 5.264 21.513 11.752 27.84 22.758l5.041 11.387.536-18.693 21.616-.193.611-.67c.508-17.479.06-36.876 8.882-52.323-4.7-3.848-8.365-8.809-11.717-13.905-11.233-17.065-18.115-36.958-22.609-57.005-4.831-3.015-9.475-8.058-9.717-14.397-.425-11.064 12.267-10.871 14.738-1.613.961-.39.914-1.927 2.192-2.312 5.6-1.696 1.524 11.063 2.187 13.395.676 2.384 8.733 13.197 10.714 16.39 4.201 6.773 8.29 13.65 12.17 20.635l16.286 12.528c.522-1.609.089-3.386.238-5.043.089-.997 1.086-5.293.923-5.515-.634-.853-2.667-.02-3.217-4.157-3.31-24.94 26.866-28.317 38.541-11.906 5.32 7.475 4.849 20.422.56 28.316-1.935 3.565-2.63 2.75-5.292 4.639-3.362 2.384-6.216 8.203-5.208 12.427 11.39-3.16 18.035-11.695 23.606-21.805 9.097-16.497 14.762-34.858 22.19-52.164-.135-3.213-3.828-8.699-2.98-11.685.616-2.163 2.518-2.466 3.996-.95-.345-3.347-2.755-9.84 2.798-8.183l.438-2.678c2.434-.36 5.045-.886 6.551 1.474.672 1.05.816 3.02.933 3.136.13.125 1.944-1.3 3.212.766 2.299 3.752.443 11.834-.876 15.837-.854 2.586-2.602 5.327-3.059 7.904-.867 4.889-.933 10.52-1.683 15.587-3.483 23.49-9.918 46.427-22.087 66.686-1.39 2.316-6.113 8.164-6.612 10.013-1.212 4.48-1.953 14.137-2.429 19.147-.308 3.26-.55 6.574-.471 9.859h9.083c2.303 0 9.106 2.9 11.26 4.248 22.563 14.161 9.447 48.957-15.62 47.781l-1.426 10.265-1.427.26v51.008h-1.394l-.7-51.49h-16.538c.084 6.816-.107 13.65-.019 20.471.117 9.06.551 18.293.523 27.411 0 .67-.108 2.972-.812 3.141l-61.332.481c-1.301-1.108-.294-2.745-.289-4.089.005-2.495-.047-4.995-.019-7.48-.61-.631-13.768.727-16.095.505-3.935-.37-2.522-1.05-2.518-3.612.01-7.514-.06-15.028-.014-22.537-5.921-4.032-9.796-10.476-13.293-16.69l-4.877-10.591c.186 12.903-.261 25.846-.023 38.754.102 5.616.317 10.303.079 15.832-.103 2.356 3.157 14.778 2.271 15.669l-1.436-.284-2.285-16.083-55.9.487c.177.563.471.948.438 1.613-.149 2.924-.699 6.281-.895 9.209s.238 5.963-.476 8.902h-1.394l.933-19.734h-1.87l-1.399-57.742c-2.196 3.097-4.215 6.348-6.537 9.364-4.919 6.396-10.827 12.359-17.718 16.448 4.206 17.037 10.169 33.717 12.613 51.177l-1.777-.809-14.067-55.006c-2.257 2.211-18.161 8.357-18.539 10.404 2.402 8.333 5.181 16.492 8.99 24.247 1.352 2.755 11.204 19.425 9.558 21.159-.75.044-1.086.174-1.613-.491-1.133-1.431-2.075-8.241-4.206-8.651l-61.724.482v9.383c0 .525-.913 2.095-.466 3.131h-1.394l.415-18.241c-9.143-2.485-17.569-7.177-25.425-12.499l-2.154 1.324-11.498-8.116c.228.564.452 1.022.475 1.672 1.101 32.281 2.168 64.504 2.807 96.708l.443 31.539h-1.86l-1.399-63.04-64.75 1.445c-.792 9.86-2.13 19.729-2.788 29.603-.709 10.645-.732 21.352-1.404 31.997h-1.86l.415-7.172c-8.257-1.329-10.127-9.662-9.73-17.123.12-2.23 1.002-4.898.894-7.148-.363-7.634-4.825-21.622-6.34-30.06-5.172-28.809-6.925-63.748 3.23-91.637 6.118-16.8 18.656-25.22 35.753-26.823-.382-3.213.56-7.693-.102-10.727-.303-1.397-2.602-4.046-3.404-5.626-8.024-15.827-8.784-34.829 9.493-42.42-.345-1.965.956-4.802-.168-6.189H.933l-.7-.723V47.049l1.609-.747c39.455.135 78.943-.289 118.337.506l1.166.722v88.299h-17l-.7.722v13.713h-8.85c.877 3.435-1.906 8.497-1.883 11.315.01 1.3.96 2.35 1.208 3.578 1.114 5.568 1.818 19.628-.378 24.681-1.11 2.548-3.968 5.298-6.845 5.197l.038 4.007.727.694c8.248 1.743 16.552 3.945 23.579 8.843 5.642 3.935 10.076 9.58 14.533 14.821l.676-2.64c1.968-17.055-.69-36.683 10.496-50.776 1.879-2.37 4.574-4.186 6.294-6.729H99.454v-1.927H145.8zm202.624 8.179h7.917c1.38-2.491.531-6.402.681-9.403.051-1.025.429-1.941.48-2.87.098-1.826.033-16.574 1.636-16.589l.718 2.134-1.417 26.728h32.606l.998-37.705c.153-.626.568-.689 1.1-.79 2.117-.405 5.572.14 7.94.019 1.25-.062 2.36-.491 3.684-.525 4.112-.106 8.253.126 12.365.024-1.702 8.169-4.62 16.093-5.147 24.517-8.808 1.045-15.303 6.753-19.541 14.46h10.947c.28 0 3.269-3.107 4.276-3.762 2.812-1.84 6.584-3.386 9.927-3.459.037-3.102.168-6.295.471-9.378.48-4.855 1.543-18.019 3.016-21.906.648-1.714 4.677-6.478 6.024-8.694 10.92-17.932 17.541-38.682 21.09-59.538 1.23-7.225 1.347-17.932 3.063-24.261.545-2.019 2.145-4.403 2.886-6.642 1.431-4.326 2.802-10.221.485-14.407-1.399-.01.121 9.556-2.551 10.096.098-1.792-2.163-1.402-2.699-2.038-.905-1.074-.648-12.899-1.273-12.884-1.054.005-1.086.843-1.184 1.666-.257 2.158 1.52 15.63-.676 15.654-1.707-.948-3.218-6.261-4.873-6.507-.601-.091-.615.048-.932.54-.08 3.708 3.902 8.775 3.03 12.239-7.632 16.439-12.883 34.063-21.438 50.044-6.206 11.59-13.419 21.709-26.797 24.536 3.171 9.508-13.451 15.582-16.272 5.501-.508-1.821-.597-6.387-1.189-7.432-.401-.703-4.075-1.874-4.723-3.333-.69-.126-2.919 2.673-3.74 3.256-4.033 2.851-8.22 3.179-11.791 7.547-9.941 12.162-8.333 37.339-9.717 52.367l.624.795zm103.64-144.841v-8.42c0-.197-.904-1.68-1.398-1.686v9.383l.704.718h.69zm-6.522.963c-.192-3.04.47-7.947-1.856-10.1.401 2.735.503 5.558 1.077 8.265.116.559.056 1.912.774 1.835zm-120.147 8.16c-.839-4.051-3.012-9.33-7.717-9.167-8.052.28-4.28 12.09-.475 15.939 1.422 1.44 4.499 2.268 5.119 3.376 1.063 1.907 2.434 10.462 3.283 13.448 4.667 16.4 12.197 35.007 22.399 48.561 1.236 1.643 7.022 8.974 8.743 8.627 2.438-4.234 12.854-6.416 14.398-10.168.694-1.686-.634-2.668-1.068-4.417-.634-2.562-1.156-4.927-.909-7.615L351.445 78.82c-6.775-13.236-15.247-25.547-23.388-37.93l1.04-11.883c-1.142-1.47-2.121 4.638-2.354 4.792H325.4zM119.48 48.73 2.098 48.248v85.654H119.48zm286 41.866c4.243-12.678 4.047-25.827-8.747-32.585-8.346-4.412-23.089-3.593-26.525 6.975-.802 2.47-2.183 11.4.573 12.62 1.907-5.424 6.08-8.555 11.647-9.138 11.223-1.17 14.958 5.963 15.802 16.391.489.747 4.882.25 6.057 3.348.438 1.151-.266 2.745 1.193 2.394zm-25.612 18.289c.07 5.939.429 11.545 7.642 10.538 8.044-1.117 5.759-8.116 6.379-13.616.438-3.897 2.965-8.762 6.024-11.103 1.954-1.493 4.066-.53 3.143-4.73-.793-3.607-5.386-2.384-6.206-3.694-.849-5.88-2.019-14.58-8.948-15.78-5.04-.87-11.908.478-14.477 5.506-2.346 4.581-3.11 19.445-1.376 24.348 1.735 4.904 5.866 7.351 10.776 7.042 1.272-.082 6.942-2.321 7.287-.669.257 1.238-2.891 1.734-3.707 1.936-2.135.525-4.429.983-6.532.226zm-216.602 31.996c.485 3.194-.354 7.495 0 10.828 5.978-1.069 12.128-2.288 18.166-.963l.494-3.352c8.449 2.952 10.813-2.486 11.96-10.009.55-3.603 1.31-21.054-.914-23.096-7.679-1.956-13.205-1.363-15.14 7.47-.303 1.378.355 3.021-.816 3.955-2.396-1.248-3.548-4.648-6.257-2.115-2.131 1.995-2.849 7.37.294 8.285.881.255 4.201-.38 3.865 1.291-.289 1.426-4.597.775-5.828-.227-5.367-4.359.797-16.785 6.528-10.606 1.039-1.965 1.007-3.848 2.177-5.919 3.632-6.426 9.605-5.477 15.755-4.176 2.401-13.126-10.813-18.217-21.21-17.822-15.14.573-22.236 17.971-17.336 31.424 1.739 4.778 7.638 10.847 8.272 15.032zm128.101-3.612c5.404-5.163 7.432-15.697 6.211-23.023-2.919-17.47-30.34-24.2-37.506-6.175-.681 1.71-2.896 8.506.666 7.952l15.849-3.81c1.599 2.317 4.014 3.482 5.553 5.958 1.632 2.62 2.494 5.862 2.238 8.993 9.213-4.518 8.971 3.222 6.989 10.105Zm-8.383-6.734c-.718-3.391-.229-5.948-1.464-9.32-1.301-3.554-3.287-4.571-6.024-6.806l-13.251 3.131c-1.73 8.935-3.553 22.046 1.711 30.003 4.49 6.782 10.038 1.339 15.284.053.825-.202.834-.246 1.408.51.42 2.067-10.552 5.246-12.529 4.61-.429 2.654-2.932 7.239.285 8.993 4.882 2.658 15.671-5.949 20.557-7.673.145-5.323.14-10.727.546-16.04.186-2.447 2.121-8.487.261-9.907-2.415-1.845-4.374 2.706-6.779 2.442zm131.817 1.927-20.963.477-.924 32.242c4.15-6.199 9.843-10.399 17.15-11.637zm-312.554 3.367H68.242v5.293c9.372-2.466 21.084-2.76 26.316 7.22h6.989l.7-.722zm-39.964 53.787c4.304.178 16.571.752 18.94-3.569.583-1.06 1.53-5.987 1.375-7.056-.14-.978-2.373-3.569-2.96-6.093-2.183-9.393 2.312-13.877 11.456-12.254 7.59-18.361-9.41-21.525-22.847-17.354-20.576 6.387-17.298 32.469-5.964 46.326Zm150.748 22.643c-.061-6.767.34-13.621.097-20.394-.638-17.571-2.205-29.121-19.461-36.196-19.462-7.982-40.607-2.115-54.171 14.069-10.579 12.624-9.204 26.458-10.7 42.116l13.041 1.927-.457-20.21h1.385l1.884 47.39c.093.911 1.03 1.73 1.841 1.975 1.763.54 8.234-2.427 10.384-3.28 7.525-2.981 28.778-11.675 33.133-17.735.424-.592 1.049-1.247 1.081-2.013l-4.55-29.964c-.145-1.908 1.179-3.425 1.748-.81 2.038 9.378 2.275 19.975 4.332 29.469l15.358-14.243 1.753.12c2.35 1.002.173 8.357.588 8.829l2.714-1.035zm109.539 23.655c-.248-12.644.494-25.158.447-37.792-.033-8.304-3.604-17.132-8.439-23.958-6.248-8.814-15.685-13.732-24.922-18.52-5.409 2.057-18.497 12.808-23.453 6.421-1.441-1.859-1.497-3.824-.923-6.021-26.773 2.476-36.821 30.138-47.265 51.5-.378.775-1.618 1.844-.947 2.389 1.795-1.383 7.969-10.207 9.773-5.761 2.667 6.575-5.362 19.917-10.971 23.394.252 1.055.541 2.365.923 3.353.191.486-.256.828.737.66 10.169-7.062 18.026-16.627 24.11-27.561.504-2.852-1.543-19.247-.121-20.322.583-.443.76-.255 1.184.232l2.085 79.407 57.76-.477c-.098-4.889.112-9.807.019-14.701-.252-12.716.783-29.819-.48-41.846-.401-3.825-3.334-7.803-3.996-11.276-.527-2.75.942-2.033 1.902-.034 6.169 12.851 9.4 30.846 21.187 40.185.466.371.592.935 1.399.718zm-250.835-44.27c-2.719.255-6.043 0-8.85 0-.14 0-.36-.607-.7-.482v9.142l23.295-1.44-.452-5.279c2.811-.578 5.348-1.031 6.742-3.863 2.15-4.364 1.627-15.379 1.151-20.447-.54-5.813-1.664-8.217-8.038-6.873-4.373.92-4.09 6.479-3.488 10.12.392 2.389 2.108 3.824 3.11 5.852-.713 3.911-.56 9.06-4.494 11.232-1.301.718-6.715 1.889-8.276 2.038Zm349.025-28.24c-14.907.939-25.412 13.954-22.6 29.314 4.877 26.674 45.535 25.624 50.902-.087 3.916-18.751-11.475-30.291-28.302-29.232zm-34.373 8.034-60.558-.482c-.457 6.33-.261 12.687-.443 19.031-.634 22.06-.914 44.342-1.903 66.363-.088 1.999.112 4.042.019 6.041l62.885-1.445zm14.906 0h-13.507l-.047 91.376-45.139.53-.461 10.105h59.159v-69.051c0-.39-3.082-5.365-3.614-6.854-2.266-6.334-2.186-13.852.42-20.027l3.194-6.084zM116.99 215.876c-12.142-12.417-28.218-15.634-44.785-14.599-35.356 2.216-46.318 14.147-51.4 49.876-4.835 34.001.802 65.343 8.654 98.211-1.096 7.779-2.705 20.302 7.1 22.248.579-9.363.71-18.78 1.404-28.143.68-9.181 2.616-18.491 1.893-27.469-.956-11.849-1.804-23.727-2.83-35.566-1.329-15.317-3.33-30.6-4.187-45.956 1.1-.14 1.67.015 1.865 1.2l6.984 81.564 66.149-1.445-2.788-66.546c-1.604-1.517-13.27-11.001-13.05-12.124.065-.337.974-1.103 1.398-.496 5.744 4.682 10.999 10.322 16.813 14.874 1.572 1.233 4.994 4.041 6.612 4.735.592.255 1.086.592 1.73.154l17.21-20.187c-7.712-5.24-12.366-13.775-18.777-20.331zm75.628 22.446c11.302-7.278 26.259-10.081 31.43-24.546 1.105-3.092 1.399-5.833 1.166-9.137-5.838 4.354-9.833 11.68-18.161 10.582-.564-.554 3.954-7.663 1.632-9.127-7.954 6.194-14.734 13.626-21.122 21.467l5.055 10.756zm210.074-31.761v15.158l.681.544 17.186.111c1.152-.39.853-6.767 1.702-8.347a28.4 28.4 0 0 1-13.456-3.434c-2.215-1.205-3.884-3.011-6.113-4.032Zm-260.85 8.66-13.042-1.922-1.296 12.215c3.926 5.833 10.109 9.263 15.261 13.766l-.923-24.064zm-20.497 41.38c6.574 3.863 13.134 7.991 20.38 10.471 6.267 2.144 8.169 2.245 14.254-.428 10.341-4.542 20.301-11.387 29.132-18.506 1.212-.978 6.928-5.231 6.933-6.103.014-1.883-5.772-13.679-6.644-13.756-5.358 2.837-10.715 5.703-16.231 8.203-3.264 1.479-20.156 8.862-22.32 8.496-2.48-.419-8.239-7.634-9.442-7.523l-16.058 19.146zm25.616 17.33h61.02c-.508-3.304-2.966-6.175-4.434-9.132-3.963-7.976-7.031-16.377-9.311-25.037l-1.129 4.61c-11.54 8.694-22.749 18.096-36.051 23.871-3.315 1.44-6.383 2.813-10.095 2.326z"/><path d="M220.094 92.036c2.411-6.782 4.495-13.342 2.481-20.61-1.138-4.1-1.968-3.627-5.996-3.468-24.395.968-67.244 7.287-78.481-21.863-10.617-27.551 20.851-39.29 40.914-42.926 24.18-4.383 83.783-8.573 90.614 24.946 4.089 20.066-18.39 33.1-33.483 39.366-.657 7.157-4.252 14.392-9.045 19.527-.779.833-6.178 5.886-7.008 5.028zm40.826-76.339C245.692.101 210.475 1.35 190.519 3.502c-18.501 1.994-57.093 9.816-52.268 36.669 6.067 33.75 53.033 26.496 76.934 25.865 1.818-.048 5.432-.27 6.914.597 2.019 1.185 3.031 7.51 3.115 9.773.14 3.7-1.058 7.187-1.161 10.818 3.665-3.439 6.91-7.894 8.631-12.74.997-2.808 1.091-5.688 2.298-8.212 16.068-6.926 41.171-21.256 31.095-43.143-1.105-2.393-3.334-5.568-5.152-7.432zM71.506 355.255l.462 25.504h-1.86l-.243-26.014c-1.091-1.402-8.948-4.306-8.607-5.978.084-.409.932-.982 1.426-.53l15.807 8.709-.71 1.199-6.275-2.885zm258.985-56.302h-22.357v35.128H294.16v-.963h13.041V297.99h22.125c.363 0 1.142-.925 1.165.963Zm-199.83-19.247v18.284h12.109v.964h-12.809l-.485-.472c.373-.814-.214-1.802-.214-2.177v-16.603h1.399zm-18.632-177.078H30.046V55.95h80.817c.084 0 1.166 1.117 1.166 1.204zm-1.865-44.751H31.906v43.306l5.59-.482V90.355c0-.419.723-2.235 1.166-2.644h8.85l.7.722v12.273h.932V78.569h10.482l.699.722v21.897h4.192V69.186l.699-.723h9.782c1.166 2.091.793 5.906.718 8.44-.032 1.136-.48 2.19-.503 3.328-.154 6.974.158 13.982.018 20.952h3.264c.415-2.51-.42-5.106-.49-7.442-.083-2.842-.372-18.106.262-19.502.102-.227.844-.969.923-.969h8.85l.699.723v26.467l.685.612 1.646-.376v-13.23c0-.088 1.082-1.205 1.166-1.205h9.316l.699.723v13.712h7.917V57.872zM73.833 70.385h-7.451v30.798h6.756l.7-.723V70.385zm13.04 30.798V75.438l-.675-.607-6.309.366v25.986h6.99zM58.46 80.491h-7.451v20.21h7.45zm41.922 7.697h-7.218l-.7.722v11.791h7.918zm-54.036 1.445c-2.205.318-5.236-.776-6.989.722v10.346h6.99zm65.212 23.095-80.108-.236 2.065-1.228c17.713-.13 35.436.251 53.15.048 7.506-.086 15.773-1.425 23.289-.53 1.366.164 1.79.395 1.604 1.946Zm-32.699 9.287c10.51-.097 21.024-.227 31.533-.14 1.907.352 1.273 2.042-.443 1.946l-76.9.482c-2.047-.116-2.327-1.701 0-1.97 13.554-1.571 29.966 1.204 43.828.043.667.111 1.422-.356 1.982-.361Zm32.699-5.91c.172.274.06 1.44-.452 1.686-26.354.168-52.81.703-79.2.708l.27-1.932 79.382-.467zM10.715 100.219h10.714c.084 0 1.166 1.118 1.166 1.205v21.655c0 .111-1.455 1.204-1.632 1.204H10.715c-2.327-2.384-.737-6.083-.681-8.882.08-3.92-.63-10.519-.019-13.973.093-.539.238-.9.7-1.204zm10.015 1.927h-9.316v20.211h9.316zM10.015 57.877V55.95H21.43l.694.727-.694 1.2zm11.648 32.719c.186.559-.206 1.927-.7 1.927H10.015l-.457-1.205.69-.722zm0-24.059H10.248l-.69-.723.457-1.204h10.948c.494 0 .886 1.368.7 1.927Zm-11.648 8.66V73.27h10.948l.695.733-.695 1.194zm11.648 6.257v.713c-.294.231-1.021 1.209-1.166 1.209H10.015v-1.927h11.648zm357.04 109.232c1.03.168 1.398.886 1.165 1.926h-49.61c-.494 0-.886-1.368-.699-1.926zm-2.565 54.374c.187.559-.205 1.927-.699 1.927h-42.621c-.187-.559.205-1.927.699-1.927zm-.461-30.311-.21 1.464c-.546.771-8.701.492-10.291.477-3.445-.038-7.213-.698-10.677 0l-21.681-.024v-1.922h42.859zm-6.155 9.764c1.273-.058 2.574-.472 3.833.086l.452 1.45c-.401.694-.928.67-1.604.752-8.878 1.069-20.968-.26-30.321-.044-2.83.063-7.292 1.816-9.521-.703-.009-1.209 7.875-.645 9.092-.703 9.311-.439 18.753-.405 28.064-.838zm2.891 9.96c.186.559-.205 1.927-.7 1.927h-38.895v-1.44c1.128.496 2.867-.482 3.492-.482h36.098zm-38.896-30.316h18.166l.699.728-.699 1.199h-18.166l-.694-.732zm90.833-31.269c2.369 1.931.737 5.39.681 7.909-.07 3.063.489 7.87.018 10.601-.317 1.845-1.66 1.585-1.883-.457-.369-3.391.331-6.787.508-10.11.061-1.142-.476-7.972.681-7.948zm-39.362-80.365-.205 1.469-.565.375c-1.692-1.136-6.714 3.372-7.143 1.272-.452-2.206 6.318-3.825 7.917-3.116z"/><path d="m254.56 25.639-.205 1.469-.956.453-92.926 3.367.206-1.47.955-.457zm-10.295 13.905-83.792 2.929.206-1.47.955-.452c27.528-.708 54.87-2.452 82.389-2.823l.242 1.821zM160.473 20.34l.206-1.468c.624-.887 11.12-.366 13.088-.434 15.158-.515 30.47-1.676 45.609-1.965 4.938-.096 11.055-.376 15.877 0 .834.063 1.506-.135 2.065.742-.611.857-1.044 1.084-2.065 1.228-3.992.55-9.741-.169-14.016-.043-11.284.322-22.684 1.141-33.967 1.483-8.948.27-17.849.395-26.801.458zm66.14 31.275-65.683 1.194.774-1.599c13.322-.25 26.68-.23 40.006-.539 6.443-.15 13.074-.265 19.564-.482 1.94-.062 5.591-1.898 5.334 1.421z"/></g><defs><clipPath id="a"><path fill="#fff" d="M0 0h458v381H0z"/></clipPath></defs></svg>