<svg xmlns="http://www.w3.org/2000/svg" viewBox="0 0 400 400" fill="none" stroke="#F377DE" stroke-width="2" stroke-linecap="round" stroke-linejoin="round">
  <!-- Marketing/Growth Illustration - Rocket with graphs -->
  
  <!-- Rocket body -->
  <path d="M200 80 Q180 120 180 180 L180 250 L220 250 L220 180 Q220 120 200 80" />
  
  <!-- Rocket window -->
  <circle cx="200" cy="160" r="20" />
  <circle cx="200" cy="160" r="10" fill="#F377DE" />
  
  <!-- Rocket fins -->
  <path d="M180 220 L140 260 L180 250" />
  <path d="M220 220 L260 260 L220 250" />
  
  <!-- Rocket flames -->
  <path d="M185 250 L180 290 L200 270 L220 290 L215 250" stroke-width="2" />
  <path d="M190 270 L195 300 L200 285 L205 300 L210 270" stroke-width="1.5" />
  
  <!-- Growth chart on left -->
  <polyline points="40,350 40,200 150,200" />
  <polyline points="50,320 70,280 100,300 130,240" />
  <circle cx="50" cy="320" r="4" fill="#F377DE" />
  <circle cx="70" cy="280" r="4" fill="#F377DE" />
  <circle cx="100" cy="300" r="4" fill="#F377DE" />
  <circle cx="130" cy="240" r="4" fill="#F377DE" />
  
  <!-- Arrow up -->
  <line x1="130" y1="240" x2="140" y2="210" />
  <polyline points="135,215 140,210 145,215" />
  
  <!-- Target/bullseye on right -->
  <circle cx="320" cy="280" r="50" />
  <circle cx="320" cy="280" r="35" />
  <circle cx="320" cy="280" r="20" />
  <circle cx="320" cy="280" r="8" fill="#F377DE" />
  
  <!-- Arrow hitting target -->
  <line x1="280" y1="240" x2="310" y2="270" stroke-width="3" />
  <path d="M310 270 L320 280 L315 265" />
  
  <!-- Social/share icons floating -->
  <circle cx="300" cy="100" r="15" />
  <circle cx="340" cy="140" r="12" />
  <circle cx="280" cy="160" r="10" />
  <line x1="290" y1="108" x2="328" y2="132" />
  <line x1="290" y1="152" x2="312" y2="112" />
  
  <!-- Dollar/growth symbol -->
  <path d="M80 80 Q90 70 100 80 Q110 90 100 100 Q90 110 100 120" />
  <line x1="95" y1="65" x2="95" y2="75" />
  <line x1="95" y1="120" x2="95" y2="130" />
  
  <!-- Stars/sparkles -->
  <path d="M350 60 L353 70 L363 70 L355 76 L358 86 L350 80 L342 86 L345 76 L337 70 L347 70 Z" />
  <path d="M60 140 L62 147 L69 147 L63 151 L65 158 L60 154 L55 158 L57 151 L51 147 L58 147 Z" />
</svg>
