<svg xmlns="http://www.w3.org/2000/svg" width="457" height="392" fill="none"><g fill="#F377DE" clip-path="url(#a)"><path d="M34.13 387.334c-16.88-24.352-8.411-55.077 16.597-69.671 14.096-8.222 29.67-9.246 45.499-6.288l9.491-29.388-56.95-10.554-26.203-74.252 75.878.057 18.131 47.822c9.776 4.439 13.925-10.696 16.426-17.581 5.201-14.253 8.64-29.16 12.988-43.698l-.142-1.565c-4.121-.796-7.162-6.571-6.594-10.469.228-1.593 1.848-3.584 1.762-4.836-.113-1.451-1.932-3.186-1.847-5.519.171-4.012 4.973-7.397 8.781-7.255.086-.085.171-2.02.057-2.304-.142-.541-8.809-2.504-10.742-3.642-.909-.54-1.847-.796-1.563-2.162 11.851-3.243 9.662-13.371 14.692-21.792.54-.882 2.047-1.65 2.217-2.532.199-.939-1.08-2.759-1.193-4.068-.484-4.666 4.007-9.388 8.582-9.787 1.932-.17 4.035.939 5.257.712.512-.086 2.643-5.463 7.673-6.145 4.462-.626 7.134 2.645 9.492 2.645 1.279 0 3.268-1.536 4.945-1.82 8.924-1.593 18.216 4.096 18.927 13.485 10.06 2.048 18.103 10.355 9.264 19.43 3.695 2.988 5.798 9.474 1.791 13.087-2.245 2.02-5.712.996-6.622 6.344 28.419 3.755 59.651 20.114 71.729 47.282 1.08 2.447 2.813 9.474 3.637 10.669 1.166 1.735 6.224-2.561 6.366-3.13.682-2.816-2.586-4.551-2.643-4.836-.625-2.646 3.95-5.405 5.485-7.397 10.231-13.342 17.108-38.52 16.426-55.248-.341-8.193-3.893-11.778-6.195-19.032-1.705-5.406-3.183-12.774-3.41-18.407-.143-3.442 1.278-11.607.056-13.712-.397-.683-9.321-9.673-10.003-9.787-6.167 4.837-13.129 11.18-21.058 5.406-5.03-3.67-5.513-9.19-8.156-14.339l-9.805-3.499-.057-2.56c2.672-.2 8.554-2.646 9.35-5.32.682-2.305-1.023-6.8-1.222-9.417-.483-6.543.228-13.087 3.78-18.691 7.19-11.323 18.017-16.273 31.317-17.126 15.886-1.025 36.376 6.714 39.928 23.897.682.626 3.382-2.305 4.292-2.874 4.547-2.702 8.156-3.3 13.47-2.304 2.131.398 5.655 2.93 6.451 2.873.54-.028 5.059-3.499 7.162-4.21 3.751-1.252 5.712-.74 9.52-.37 1.08-6.572 2.671-11.55 9.122-14.395 3.467-1.536 5.883.057 6.48-5.15.596-5.206-2.984-9.018-7.077-11.72l.824-2.106c10.771 1.565 18.643 6.401 18.672 18.15 0 1.423-.825 2.931-.711 4.04.114 1.31 1.819 2.248 2.416 3.756 1.421 3.528.426 8.876-1.819 11.863-.938 1.252-2.956 2.134-3.211 2.93-.398 1.252.056 3.016-.256 4.524-.824 3.897-6.821 8.478-10.572 9.189-2.359.455-7.588-.455-8.412-.142-1.023.37-3.694 4.125-5.627 5.234-3.865 2.19-9.463 2.59-13.641 1.081-2.387-.882-5.484-4.296-6.422-4.552-1.251-.312-4.178 1.622-6.053 1.907-6.281.882-11.055-1.31-14.949-6.06-1.904 4.011-2.501 7.909-5.769 11.266-3.04 3.13-6.763 3.784-10.23 6.088-.37 5.547 17.079 3.5 20.802 3.727 37.484 2.247 80.908 19.829 102.506 51.635 10.771 15.874 17.279 38.321 6.224 55.76l-18.359 5.861c3.297 12.062 5.144 22.73 1.308 35.02-6.451 20.598-24.696 35.448-34.87 53.798-1.222 2.219-4.86 9.16-5.229 11.209-.426 2.219 1.506 2.901 1.25 4.921l-4.774-1.365c.483 5.121 3.012 9.644 5.343 14.082 9.008 17.269 21.143 33.029 30.237 50.213 1.563 2.958 4.945 7.994 3.524 11.209-.512 1.138-2.16.938-2.302 2.532-.511 5.604 9.35 22.19-2.33 23.555-6.991.825-23.588.655-30.749 0-3.922-.369-7.588-3.442-3.695-6.486s20.433-3.641 22.167-7.169c1.137-2.333-.398-5.149-1.108-7.397-2.643-.341-5.627.626-7.759-1.451l-22.536-28.677c-1.904-.569-3.353 3.613-5.058 4.467 6.138 4.779 7.389 11.323 7.502 18.748h-4.746c-1.904 18.719-27.935 24.665-38.507 9.502-6.849-9.815-1.819-23.328 8.27-28.478l13.868-3.527c-.767-.029-1.506-.484-2.074-.996-13.158-11.977-25.065-26.088-38.195-38.179-9.406-1.024-19.438-3.812-28.788-4.694-.909-.085-1.165-.569-1.904.598l51.807 45.006-2.046 1.337c-14.835-12.148-29.129-25.035-44.02-37.126-1.421-1.166-3.951-3.414-5.428-4.125-.654-.313-.512-1.11-1.393 0l-2.387 10.242c32.198 7.453 49.733 46.002 30.692 74.309h42.628c1.932.37 2.302 1.564.682 2.731H17.08c-.284-.797.312-2.731 1.023-2.731H34.13zM403.603 25.462c-.768-.74-2.615-.654-3.183-1.963 5.058-7.454.54-17.81-8.213-19.345 3.524 4.153 4.376 10.07 1.534 14.822-1.534 2.56-5.03 1.65-7.474 2.73-6.508 2.902-5.058 12.917-9.065 14.851-1.592.341-2.615-.91-4.405-1.11-7.105-.71-10.146 6.572-12.391 6.743-2.586-1.081-3.325-3.442-6.167-4.523-8.099-3.073-16.71 3.015-18.443 11.123 6.564 6.942 12.76 9.218 21.342 3.699 1.307.028 2.615 2.958 4.064 4.096 5.058 3.983 11.453 3.016 16.341-.683 1.278-.967 3.012-3.584 4.262-3.954 2.132-.626 4.519.797 7.19.398 3.354-.483 9.293-4.352 9.947-7.852.369-1.849-.938-3.698-.284-4.95.511-.967 3.353-2.247 4.49-3.755 1.989-2.674 3.097-7.909.483-10.384zm-102.791 38.69c.086.996 1.023 1.053 1.677 1.366 8.554 4.069 23.758 1.024 28.475-7.71 1.876-3.47 3.666-13.712 2.956-17.553-2.87-15.903-25.065-22.19-38.933-21.137-3.013.227-19.496 4.41-20.661 6.259-1.989 3.186 2.984 12.034 5.343 14.537 2.927 3.101 11.31 7.54 15.46 7.681 1.705.057 3.722-2.02 5.484-2.39 4.405-.91 8.782.257 11.396 3.983 5.57 7.91-2.984 16.074-11.197 14.965m-28.646-34.11c-.852-.91-3.978 3.87-4.518 4.694-2.672 4.125-4.178 8.421-4.206 13.371-.029 5.377 3.922 13.258-.455 17.411-1.563 1.48-4.575 1.707-5.826 3.386 9.009-.854 9.35 5.064 12.021 11.664 1.507.313 5.826-1.764 6.395-3.13.909-2.162-3.894.484-4.974.256-.739-.17-2.444-1.621-1.165-2.276l8.838-3.044c2.018 5.52-3.04 9.104-7.474 11.238 5.485 6.572 12.135 3.044 17.364-1.736 5.712-5.206 9.549-13.456 10.6-21.109 3.78.455 5.599 1.451 9.094-.796 7.332-4.694 1.364-14.794-6.735-12.205-1.677.54-3.496 2.361-4.718 2.475-2.728.256-10.969-3.072-13.527-4.609-5.314-3.13-10.117-9.217-10.714-15.533zM317.749 69.7c-.512-.455-6.792.057-8.412-.114-3.354-.34-6.593-1.45-9.89-2.02l-5.371 12.063 20.376 22.702 1.364-.341c-.17-3.812.228-7.653.853-11.408.511-2.959 4.689-14.993 4.632-15.79 0-.284-1.648-1.023-2.273-1.905s-1.137-3.044-1.279-3.158zm-12.845 25.804v13.968c0 8.051 6.223 23.698 11.907 29.672 12.817 13.485 28.646 6.089 36.546 28.25 2.899 8.165 4.235 18.322 0 26.259 1.222.882 10.6-1.935 11.624-3.186.767-.939 2.728-6.088 3.182-7.568 4.405-14.054 2.444-25.206-4.973-37.581-8.497-14.225-24.355-24.011-29.612-40.284 1.563-.228 1.734 0 2.615 1.11 2.756 3.584 4.973 8.477 8.014 12.432 11.339 14.822 27.31 26.201 28.901 46.799 1.165 15.163-5.627 22.503-10.543 35.106-.739 1.877-2.273 5.092-1.307 6.884.994.712 18.188 5.377 20.205 5.605.967.114 1.563.313 2.388-.427 1.108-.967 4.66-7.966 5.57-9.786 14.038-28.962 14.351-56.073-3.723-83.356-2.728-4.125-7.219-8.393-9.52-12.319-.512-.882-1.365-1.337-.995-2.759 1.876-.342 2.643.91 3.751 2.048 11.169 11.38 20.689 31.749 22.763 47.482 1.592 12.204-.397 22.56-3.325 34.338 11.141-2.874 20.661-9.417 32.369-10.242 5.741-.398 11.567.37 17.279.569 8.98-15.647 4.121-35.817-5.03-50.241-19.694-31.066-63.487-50.668-99.494-52.602-4.206-.228-14.806-.655-18.444.028-2.273.427-4.234 7.34-4.774 9.53-2.529 10.1-2.131 24.125 1.592 33.883 6.678 17.497 24.894 26.031 38.677 37.013l-.71 2.048c-13.641-9.644-32.255-19.744-39.332-35.675-2.046-4.609-2.614-12.063-4.348-15.42-.909-1.735-7.73-8.591-9.634-10.782-.397-.455.057-1.308-1.563-.882zm-94.038 53.285c1.109-.683 5.258.227 6.025-3.869 1.08-5.747-3.865-5.747-4.121-8.165-.312-2.959 3.496-4.438 4.007-6.97 1.336-6.544-7.076-9.758-12.163-10.726-1.25-7.652-6.024-14.11-14.465-13.797-3.581.142-6.906 3.243-7.673 3.243-1.051 0-3.467-2.817-5.598-3.272-5.968-1.252-7.872 1.622-10.402 6.373-6.621-2.788-13.925-.37-11.992 7.823.682.939.909.569 1.733.37 2.7-.654 5.485-2.39 8.668-2.93.938-.171 7.531-.911 7.929-.797 2.387.655-1.336 5.548 2.131 8.82 2.984 2.816 6.622 2.019 10.231 1.337 1.591 2.617-2.671 3.47-4.774 3.47-6.451 0-9.151-4.722-10.316-10.327-7.73-.483-16.739 2.589-19.695 10.271-.653 1.735-2.983 9.672-3.097 11.237-.029.427-.199 1.109.341 1.024l3.069-1.366c.853.911-1.762 3.983-2.728 4.41-.682.313-9.719.342-7.503 2.39 6.366 2.731 14.636.171 20.661 1.508 4.461.995 4.433 8.136 8.838 7.254 6.252-1.252 6.735-14.224 6.735-19.231l.54-.825 2.075-.313c-.341 7.254-.142 22.873-10.572 22.56-5.684-.171-4.973-4.524-7.019-5.491-1.308-.626-10.146-1.166-10.97-.626-.398.256-.568 3.186-1.734 4.068-1.847 1.394-5.541-.398-6.934 3.983-1.222 3.869 1.592 4.524 1.762 6.544.199 2.219-3.382 3.982-1.762 9.189 1.023 3.243 3.752 2.532 4.974 3.556 1.847 1.508 1.051 5.121 6.678 5.32 4.32.142 5.428-1.053 6.792-4.78 3.552 3.955 9.435.512 13.328-1.707 10.458-6.002 16.597-16.443 15.659-28.648-.483-6.259-2.274-4.438-3.581-7.34-3.467-7.852 9.89-16.358 14.408-7.596 3.041 5.889-2.614 11.75-8.753 11.181l.683 7.482c4.603-.854 10.884 1.792 15.204.54 2.614-.768 2.841-4.921 3.325-5.206zm-18.017-14.964c-4.149.938-7.9 8.42-1.449 9.388 9.321 1.365 9.463-11.181 1.449-9.388M332.1 150.837c-3.637-1.195-7.36-2.674-10.6-4.722-1.08-.683-7.218-6.089-7.701-5.577.625 1.195.767 2.39.739 3.727-.711 21.337-6.793 44.21-21.201 60.341 4.547-.569 13.158 5.718 16.142 6.003 7.559.654 16.824-24.154 18.614-30.242 2.757-9.36 4.604-19.772 4.036-29.53zm17.819 45.576c.369-4.211 2.984-7.454 3.41-11.949 1.137-11.806-5.314-29.929-18.415-32.375 0 12.717-2.558 25.689-7.162 37.496-2.842 7.283-7.9 18.748-14.863 22.645-3.694 2.077-2.501-.37-5.229 3.613-4.092 6.003-7.843 12.632-13.612 17.155 4.547 12.176 5.172 24.324 2.671 37.041 4.263-2.532 4.291-7.994 6.224-12.518 4.092-9.616 11.254-19.8 17.619-28.051l-12.561-1.65-.398-2.105c.967-.996 13.073.967 15.375.74 2.671-.285 3.893-3.556 7.133-2.788l-.682 3.414c1.478-.228 3.637.369 4.973 0 .739-.2 4.348-7.369 8.639-8.564 5.769-1.564 17.393 4.808 17.762-5.092-1.392.228-5.57-.228-5.371-2.276l7.417-16.813c-4.291 1.735-8.298 2.446-12.959 2.048zm-118.676 46.372h-11.254c-5.457 0-25.492 6.685-32.511 8.392-3.297.797-6.707 1.394-10.06 1.849.284 6.885 1.676 13.457.71 20.37 20.831 3.328 60.816 21.621 75.508-1.081 9.293-14.339 10.117-38.492 7.418-54.907-.654-3.898-1.649-8.165-3.183-11.806l1.676-1.025c2.047.456 4.405 15.107 4.462 17.724 5.059-6.714 11.481-9.047 19.78-7.51-8.753-36.785-46.635-54.594-81.505-58.634l1.733 7.824c-.852 15.732-10.628 30.668-22.99 39.828-1.677.143-2.672-5.263-3.751-6.97-.796-1.223-1.961-2.133-2.956-3.158-.284 0-2.757 4.04-2.899 4.581-1.932 7.624.512 26.856 2.075 35.077.455 2.39 3.694 17.184 4.888 17.411l36.262-9.331-8.469-32.574c-.17-3.414 1.336-4.211 2.7-.598 3.723 9.958 5.144 22.276 8.44 32.518l.654.483c3.78-.882 7.787-1.764 11.595-.455 1.137.398 1.989.484 1.733 2.02zm-34.103-85.917c-.312-.313-4.859 1.024-5.286 1.508-.398.455-2.472 7.425-3.694 9.587-5.059 8.877-13.158 13.514-22.366 17.184 2.16 2.532 3.723 5.889 4.093 9.217l1.733-1.365-.767-2.049c11.595-8.364 23.388-19.516 26.316-34.082zm-16.369 42.958c1.307 1.138 6.451-4.637 7.474-5.803 7.304-8.535 15.09-23.016 12.277-34.424-.682-.512-7.332 13.144-8.298 14.538-4.377 6.372-10.714 11.92-16.909 16.472 2.5 2.447 5.143 5.576 5.456 9.217m259.86-19.772h-9.89s-1.676.712-1.733 1.11c.483 1.28.284 2.276 1.705 2.361 1.904.142 8.554-1.821 9.89-3.471zm-13.641.683-30.522 11.067c-1.563 3.556-2.642 7.51-4.348 11.01-1.193 2.475-5.001 10.213-6.706 11.721-1.904 1.678-4.633 1.223-6.821.313l-3.439 8.164c4.832-.369 12.874.171 10.771 7.027-1.421 4.666-13.584 1.451-14.522 2.475-10.259 20.768-23.076 46.458-15.374 69.928 2.728 8.336 7.758 14.936 12.987 21.792 11.282 14.765 24.326 28.279 35.239 43.328 6.991.114 14.295.086 20.689-3.072l.54-2.589-36.149-61.422c-1.676-4.295-3.126-8.307-2.643-13.029 4.292-.228 4.547-5.776 6.366-9.389 11.282-22.503 37.087-41.99 39.275-68.477.824-10.042-3.325-19.288-5.371-28.904zM159.628 195.73c.312-3.756 6.252-7.539 3.069-10.896l-7.105 2.077c-.426 3.84-.284 7.795 4.064 8.819zm-6.878-8.791-4.689-1.422c-5.627 16.784-8.611 36.898-16.483 52.744-2.728 5.491-6.508 11.351-13.527 9.986l2.387 6.116 8.725-6.258c7.275-3.13 13.385-3.073 20.916-.911 5.684 1.622 10.458 5.747 16.369 5.804-3.723-11.323-8.042-23.072-8.867-35.106-.369-5.434.91-13.571 0-18.379-.426-2.19-4.149-4.751-4.632-6.287-.568-1.906.171-4.296-.199-6.287m16.54 65.262c2.472.256 5.399.939 5.371-2.247 0-3.727-2.472-9.872-3.24-13.883-2.358-12.404-3.978-24.637-2.529-37.326l-5.172-6.458c.114 2.504-3.041 4.638-3.41 6.487-.739 3.869-.341 16.671 0 21.109.795 10.868 5.03 22.247 8.98 32.29zm-72.752-53.057H25.264l25.918 70.553 74.684 12.632c1.393.085.995.227.711-.711-8.696-26.97-19.126-53.343-28.277-80.142l-1.733-2.361zm194.725 23.186c.397 3.499-4.263 3.385-6.764 5.149-4.178 2.93-5.03 6.856.313 8.99 2.87-2.589 6.763-4.694 9.463-7.397 2.075-2.077 11.225-13.997 11.737-16.273.369-1.536-5.314-3.243-6.508-3.84-3.836 2.532-8.128 7.795-12.987 8.961-2.842.683-6.082-1.223-9.18-1.109-4.092.17-9.264 3.157-10.77 7.026-.938 2.419-2.245 8.905 1.506 9.36-.597-6.287 2.956-14.85 10.259-13.997l.654 2.418c-6.252.342-11.709 9.844-5.798 13.628.967-3.699.796-8.82 4.462-11.209 3.666-2.39 4.746.113 7.133.028 1.506-.057 4.121-2.76 6.48-1.764zm84.573-8.165-9.776-2.646c-2.131.512-4.063 9.104-7.076 9.986-4.604 1.337-12.618-1.594-16.142.227-5.172 2.703-10.003 13.713-3.836 17.639-.426-5.207 0-9.076 4.462-12.262 3.723.939-.427 3.329-1.194 5.633-1.137 3.385-.938 7.937 3.552 7.311-1.534-3.044.114-8.051 2.928-9.758 5.058-3.072 12.362 1.992 18.443-1.934 2.046-1.309 9.407-13.172 8.639-14.196m-4.774 15.647h11.254c.881 0 1.705-2.874.369-3.784-.341-.228-7.047-1.024-7.928-1.024-2.245 0-3.695 2.703-3.723 4.808zm-89.348-4.068c-5.03.227-6.991 7.453-3.751 10.896 1.705.227.824-.456.71-1.394-.199-1.821-.767-2.646-.085-4.78.625-1.963 3.041-2.646 3.098-4.722zm51.836 4.068-9.407-.541c-6.508 8.45-13.868 18.008-18.245 27.795-9.406 21.109 2.103 27.795 15.545 41.763 4.149.484 29.556 2.76 31.204 1.195l-2.018-8.563-17.136-17.667c-2.302-3.897 3.353-7.198 5.968-9.104 4.376-3.214 17.136-9.388 19.694-12.347 1.79-2.076 4.376-10.127 5.854-13.257 1.194-2.503 2.87-4.722 4.007-7.254-.455-.37-5.343 1.166-6.593 1.308-1.563.171-2.87-.939-4.291-.341-3.155 1.365-2.728 6.344-2.899 9.104-2.984 3.157-5.854.369-7.701.398-.796 0-1.734 1.081-3.325 1.081-8.384-.028-11.993-5.633-10.657-13.599zm21.143 2.077c-6.707-1.48-9.492 8.989-2.046 8.847-.341-3.215.426-6.088 2.046-8.847M189.297 388.017h34.102l.739-1.394-25.037-49.7c-8.753 1.593-2.785-2.931 2.131-3.13-.795-1.28-10.855-5.946-8.866-7.852 1.847-1.764 9.889 7.169 12.532 6.8l29.101-7.795c9.066-7.426 20.547-13.002 32.397-13.969 5.798-.484 11.624.512 17.421.37 2.956-9.986 5.627-20.199 7.815-30.355 2.956-13.827 6.167-25.661 2.302-39.829-.227-.854-2.018-5.889-2.33-5.889-2.757.797-4.519 4.182-7.503 4.154-1.563 0-2.501-1.11-3.495-1.224-2.16-.227-6.366.086-8.64-.313-1.904-.341-4.12-3.158-7.303-1.906 0 9.787-1.279 19.801-4.746 28.99-6.678 17.695-18.16 22.133-36.49 20.768-7.559-.569-23.616-6.174-29.271-5.434-5.087.683-22.99 8.449-28.617 10.981-27.311 12.262-38.905 21.451-18.728 49.9 12.078 17.041 28.788 31.123 42.514 46.827zm-60.362-120.681c5.286-1.081 10.43-3.414 15.972-2.674s10.23 6.003 15.744 6.116c1.165 0 5.058-.483 5.797-1.052 1.734-1.309-.739-11.494-2.075-13.627-11.424-5.633-26.003-12.489-37.825-3.756-7.275 5.349-4.547 7.625-2.387 14.993 1.535 1.394 5.968-7.937 7.474-8.535l2.046.712-4.774 7.823zm45.698-12.973-7.503 1.024 2.785 14.595 6.082.74zm182.788 2.731-16.596 9.645-5.059 4.978c-.17 2.333 13.385 12.546 14.181 16.017l1.364-.341c-.454-10.413 2.728-20.626 6.139-30.327zm-216.294 12.859.483-1.906-.71-1.394-8.526 2.02c.341 2.02 8.44 1.593 8.781 1.252zm12.362.797-9.549-3.414c-1.392 5.206 6.736 6.686 9.549 3.414m-12.959 1.366c-5.087.341-10.032-.569-15.005-1.366l1.08 3.442c3.467-.313 7.389-.37 10.799-.796.739-.086 3.183-.256 3.155-1.28zm159.599-.683c-1.279-.313-1.307.426-1.932 1.138-4.803 5.547-4.945 15.362-7.616 22.048l26.599 4.096c-7.047-8.079-17.505-15.191-17.051-27.254zm-122.768 3.414c-5.4-3.898-10.828-1.053-16.71-.712-3.382.2-6.849-.256-10.231 0-7.616.598-15.261 1.907-22.877 2.39l1.705 5.121 1.307.626 46.777-7.454zm12.277 3.385c-2.956.142-6.281-1.707-9.151-1.365-15.886 1.906-36.916 8.108-52.603 8.193-4.973 0-15.375-3.983-19.666-2.788l-5.144 17.354c.427 1.451 9.009 1.593 11.112 1.877 8.128 1.167 16.341 2.931 24.497 3.187 13.925-12.575 32.937-18.009 50.074-24.922zm134.363 23.186 37.569 37.781c5.428 3.726 9.947 2.475 13.982-2.333-7.644-11.152-17.562-20.74-22.195-33.769l-29.328-1.679zm-138.456 85.916c-18.244-19.63-39.928-37.552-50.841-62.701L103.7 303.125l-2.046-.341-2.473 9.559c17.591 6.258 33.761 21.962 35.779 41.308.569 5.32-.341 10.668-.284 15.96l50.841 17.695zm-48.425-79.771-29.328-4.779 25.577 18.406c1.534.285.938-.683 1.023-1.678.284-4.268-.455-8.364 2.728-11.949m-39.559 7.482c-1.648 4.438-9.321 37.752-11.282 38.179-1.705.37-1.705-1.849-1.563-2.902 1.194-9.217 7.36-22.845 9.748-32.574.227-.967 1.307-3.13.37-3.727-24.555-6.685-53.911 4.95-63.573 29.189-5.03 12.631-4.604 25.86 2.046 37.752 3.04 5.405 3.381 6.6 9.975 7.084 24.724 1.763 51.523-1.423 76.446 0 3.041-.399 7.048-7.226 8.383-10.014 12.533-26.003-3.637-55.846-30.578-62.987zm185.517-.654c-28.504-6.401-60.588 13.001-62.748 43.299-.739 10.214 3.41 20.825 7.474 30.014 17.705.882 35.211-.512 52.915-.398 9.805.057 20.121 1.65 30.01.74 4.633-.427 6.423-4.808 8.128-8.905 11.396-27.027-5.542-56.386-32.767-63.925l-9.889 37.752c-.426 1.963 1.591 1.906 2.785 3.328 7.985 9.645-9.35 19.431-14.494 9.019-3.609-7.283 2.359-11.664 9.094-12.489l9.464-38.435zm-64.794 52.83c-.256-4.381 0-9.189 0-13.627 0-2.219 3.04-11.152 4.177-13.542 1.933-4.097 5.229-7.397 7.417-11.323l-27.992 7.852 16.398 33.712c1.79-.142 0-2.589 0-3.072m150.732-22.162c-10.486-1.451-20.177-1.963-27.253 7.169-11.766 15.107 6.394 33.399 23.388 24.751 2.757-1.423 12.277-10.839 8.668-13.2-3.382-2.219-19.95 3.072-20.518-2.732-.427-4.409 13.044-12.204 15.715-15.988m10.231 16.358c.881-3.641-3.041-14.765-7.162-14.765-1.023 0-15.459 12.262-15.715 13.4l.71 1.365zm-102.563 3.841c6.565-6.6-6.593-14.026-10.174-5.718-2.671 6.173 5.826 10.071 10.174 5.718m146.214 2.987-9.577 1.679c-1.649 8.961 5.286 6.998 11.623 7.169l-2.046-8.876zm-246.901 18.407-42.6-14.367c-1.677 5.803-4.973 10.611-8.582 15.362l51.153-.995zm214.162 2.048h33.762c2.728 0 3.126-6.799 1.762-8.563-3.837 0-8.298-1.508-11.993-1.024-.995.113-1.79 1.991-4.035 2.816-5.712 2.105-13.158 2.817-19.069 4.666l-.398 2.105z"/><path d="M370.835 387.448c1.364-.427 10.287-.796 9.776 1.593-.313 1.423-7.787 1.28-9.208 1.024-1.961-.341-2.387-2.048-.568-2.617m70.421.626.057 1.992c-2.785-.399-6.622 1.024-8.867-1.025-.369-1.422 3.069-1.678 3.78-1.707 1.819-.056 3.382.086 5.058.74zm-431.679-.057c2.359 2.048-10.202 3.841-9.549 0zm447.423 0c.029 3.158-6.593 2.589-8.184.996-.313-1.65 1.335-.967 2.387-1.024 1.932-.086 3.865.057 5.797 0zM270.119 259.826v-2.049l19.097-1.365c.54-3.556-2.87-5.633-3.41-8.848 2.018-1.906 9.492 8.848 4.263 10.754-1.791.654-19.268 2.247-19.978 1.508zM87.131 355.5c7.702 7.027-4.916 20.028-13.015 11.323-8.1-8.706 5.769-17.923 13.015-11.323m-8.184.597c-7.048 1.537-4.775 12.404 3.097 10.64s5.286-12.489-3.097-10.64M63.942 223.809c8.866-2.703 17.42 14.765 10.43 17.923-8.299 3.784-17.933-15.619-10.43-17.923m9.634 15.448c2.984-3.442-4.462-15.021-8.071-13.229-4.604 2.276 2.586 15.818 8.07 13.229m79.715-81.592c5.769-1.736 3.95 6.515-.483 4.324-2.046-1.024-1.648-3.698.483-4.324M297.401 37.553l.398-2.105c7.9-2.703 21.598-2.248 25.406 6.657.796 1.82 2.217 9.075-1.62 7.055.767-13.911-14.039-13.968-24.184-11.607m96.112-8.819c1.904 5.092-.455 10.213-4.405 13.57-2.131 1.82-5.797 5.035-5.741.057 6.167-1.224 8.81-7.91 8.157-13.656l1.989.057zm-52.461 16.329c1.904.057 3.865-.142 5.797 0 1.137.086 7.872.825 7.844 1.707-1.421 2.56-10.97 1.28-12.504.256-.824-.54-1.336-.853-1.109-1.963zm35.467 0-.398 2.106c-3.922 1.28-7.872 1.991-11.879.597-.171-1.82 0-1.081 1.023-1.337 1.449-.342 10.856-1.792 11.254-1.366"/></g><defs><clipPath id="a"><path fill="#fff" d="M0 0h457v392H0z"/></clipPath></defs></svg>