<svg xmlns="http://www.w3.org/2000/svg" width="453" height="395" fill="none"><g fill="#F377DE" stroke="#F377DE" stroke-miterlimit="10" stroke-width=".75" clip-path="url(#a)"><path d="M337.444 83.59c-1.463 4.083-3.231 7.318-5.549 10.942-.551.86-1.553 1.435-2.129 2.37-2.209 3.569-6.055 27.305-6.941 33.028-.707 4.54-1.368 9.124-1.553 13.723.2.91.621 1.21 1.227 1.789 3.476 3.325 12.616 8.864 17.043 11.458 11.279 6.609 23.94 12.708 37.357 12.108l1.332-4.514c-13.131-1.185-12.12-17.977-10.948-27.66.957-7.913 4.608-15.472 4.898-23.041.551-14.357 18.09-14.832 28.683-13.092 30.2 4.954 28.151 39.477 7.487 54.64.125 3.614-1.597 11.122-.511 14.312.176.515.581.765 1.057.945 12.746 4.369 25.112 8.493 32.299 20.706 10.056 17.092 11.899 48.805 10.632 68.347-.786 12.102-10.347 17.257-17.574 25.415l-14.589 61.608c-4.297 1.33-8.965.235-13.242.29-18.486.245-36.991.48-55.492.29l-14.744 1.52h115.867l.751.75v10.988l-.751.749h-14.765v33.459h-2.003v-33.459h-6.506v33.459h-2.504v-32.714c0-.15.631-.385.501-.749h-32.534l3.005 33.453-2.214.015-2.789-33.468h-9.511l-4.292 33.488c-.802-.115-1.959.445-1.723-.775l4.512-32.713h-35.033l-1.753 33.463h-1.747l1.497-33.463h-49.051c.07 10.982 2.875 21.81 3.511 32.713.08 1.4-1.107.56-1.748.77l-3.772-30.489c-6.135 1.56-12.44 2.899-18.766 3.494-17.268 1.62-37.316 1.195-54.305-2.239-2.118-.43-4.196-1.075-6.245-1.76l-.255 30.964h-2.504l.5-33.453H98.949l5.494 33.218-2.494.245-6.005-45.451-18.27 1.994c-16.217.09-32.344.745-48.47-1.564-3.14-.45-6.26-1.16-9.326-1.925l-1.527 22.701.02 24.245h-1.999c.145-8.568-.195-17.172-.025-25.745.05-2.42.922-4.734.491-7.439-.48-3.029-6.426-13.787-7.988-18.001-3.616-9.753-6.606-20.066-7.493-30.479-1.723-20.147-2.509-42.447 4.628-61.799 6.03-16.352 18.205-25.965 35.439-28.634l1.011-13.373c-7.577-4.519-12.38-14.312-14.404-22.695-6.3-26.09 11.585-40.893 36.39-40.058V62.363c0-.165.662-.76.502-1.25h192.944c.09 0 1.252 1.16 1.252 1.25v102.131h8.259c12.365 0 29.008 16.157 24.02 28.959-.561 1.44-2.625 3.245-2.76 4.28-.361 2.669.801 8.783.506 12.452-.601 7.444-4.107 23.766-14.509 21.231l-.471 7.474c13.618 2.974 26.664 8.923 34.217 21.041 11.429 18.331 12.37 42.347 19.312 62.383h16.517l-.02-35.228c.025-1.18.511-2.275.541-3.455.741-27.485 2.269-54.834 2.88-82.324-.266-.905-7.302-6.659-8.67-7.829-9.45-8.133-36.991-27.609-40.667-37.832-3.035-8.444.771-20.097 3.255-28.485 4.428-14.947 10.543-29.73 17.149-43.817V.934l.751-.749h81.079l.501 83.404zm61.812-81.405h-78.58V82.09c.366.135.596-.5.751-.5h77.829zm-142.14 60.928H66.926v83.404c7.412.565 17.834 3.49 15.796 13.018-.215 1.005-1.257 2.334-1.177 3.139.055.575 2.93 5.144 3.49 6.479 2.555 6.094 3.972 13.257 4.413 19.821l145.361.025c1.643-11.858 9.776-22.775 22.312-24V63.113zm76.827 20.976c-4.162.57-9.466-.42-13.763 0-6.085 14.297-12.225 28.63-16.647 43.567-6.536 22.056-7.969 26.62 9.636 42.092 1.592 1.4 12.861 10.718 13.762 10.738l12.221-21.236c-2.434-2.3-18.791-11.713-19.367-13.578-1.107-3.589.45-11.767 1.046-15.737 1.212-8.063 3.736-26.175 6.371-33.098.661-1.74 2.214-2.395 3.2-3.8s5.214-8.178 4.292-9.443c-.395-.105-.571.475-.746.5zm40.292 30.464h7.758c3.495 0 10.863 2.68 13.913 4.594 7.016 4.4 3.811 9.859 5.358 16.882 6.146-4.694 12.386-2.744 11.449 5.689-.425 3.834-3.601 6.389-3.691 10.298 14.099-10.413 18.997-36.798 1.257-46.211-9.681-5.134-36.26-7.809-36.044 8.748Zm13.262 49.941c-2.279.26-4.929-.185-7.257 0-1.698 6.949-3.942 15.497 6.26 15.512 5.704.01 14.905-4.129 18.491-8.548 1.487-1.835.591-8.899.781-11.703.225-3.25 1.027-6.979 1.497-10.238-1.172.555-3.005.59-2.454-1.205.391-1.275 5.239-1.47 5.915-6.084 1.227-8.398-4.187-8.108-9.28-3.739-3.321.605-2.584-12.308-3.291-14.587-1.487-4.8-19.171-9.019-23.824-6.759-3.22 10.078-6.301 20.891-5.589 31.614.841 12.672 5.719 14.567 17.759 13.732 2.038-.14 5.023-2.329 4.758 1-1.172.015-2.77.895-3.751 1.005zM60.385 196.508c-8.108-2.89-7.773-18.507 1.753-17.002 2.524.4 3.696 3.254 5.534 4.479.506.34.37.78 1.017.01 2.915-2.814.731-11.948 2.113-15.372 1.458-3.599 9.04-3.839 10.017-9.988 1.567-9.898-14.554-10.523-21.15-10.108-29.048 1.81-38.9 25.465-24.866 49.77 4.031 6.979 7.307 10.428 15.841 9.644 6.606-.61 7.587-6.084 9.736-11.428zm316.85-25.52h-7.257c-1.423 0-5.8-1.115-7.473-1.535-7.622-1.915-14.609-5.854-21.52-9.443l-12.711 21.721c.005 1.239 16.607 13.732 18.941 15.972.816.779 2.274 1.914 2.484 3.014l-3.491 92.632h8.509c1.518-6.093 2.149-13.287 4.032-19.196.245-.775.386-1.885 1.302-2.195l56.218-.339c3.005-2.265 3.446-3.98 3.952-7.544.876-6.204 1.923-15.222 2.088-21.391.226-8.383-3.601-15.922-3.526-24.25l1.543.295 3.982 19.161c2.819.535 24.701-1.565 25.031-2.78-.676-16.122-3.811-40.492-17.043-51.39-7.062-5.814-16.573-8.198-24.876-11.648-6.361 5.629-14.81 11.303-23.81 9.789-5.153-.865-7.953-6.044-6.375-10.868zM70.427 212.94h8.76c.52 0 3.7-1.77 4.216-2.285 4.442-4.444 4.693-18.396 3.977-24.37-.857-7.189-3.25-15.712-7.232-21.776l-7.387 4.604c-.651 3.389.475 16.572-4.202 17.282-2.324.355-3.156-2.265-4.398-3.41-6.115-5.649-10.998 4.989-4.697 10.683 1.282 1.16 5.424 2.29 4.953 4.04-.36 1.329-2.279.105-2.494.249-.526.36-2.7 9.049-6.37 10.883-.351.175-3.216 1.11-3.392 1.11h-8.258l-.501 12.988c8.72-.43 17.284 1.29 25.773 2.999l1.257-12.992zm213.037-38.783c-9.696-9.673-29.844-10.648-39.56-.62-11.95 12.323-6.025 32.209.606 45.736 1.372 2.8 1.978 3.82 5.349 4.155 8.188.819 15.666-.48 20.479-7.539.405-.595 3.005-5.104 3.07-5.409.095-.435-1.628-4.174-1.768-5.789-.406-4.684 1.522-10.578 7.287-8.268 1.768.71 2.434 2.509.486 2.529-1.022.01-1.883-1.339-3.411-.925-4.212 1.135-1.983 10.653.135 13.133-3.125 2.22-3.926 6.514-6.736 9.288-5.294 5.214-15.415 5.794-22.287 4.474l-1.507 9.988c8.945-.334 17.804 1.23 26.524 3l1.482-9.268c.681-.55 1.813.615 2.805.76 5.098.759 7.302-5.404 8.579-9.369 2.078-6.448 2.314-12.127 2.169-18.851-.031-1.33-.742-2.665-.531-3.949.175-1.085 2.173-2.835 2.759-4.275 2.384-5.878-1.673-14.557-5.93-18.801Zm-48.37 17.307H89.448v8.238c0 1.995-1.898 8.154-2.99 10.003-.891 1.52-4.677 5.229-6.27 5.229h-8.259l-.45 11.438c13.161 2.175 25.772 6.789 33.966 17.792l23.283 30.699 20.194-25.3c2.128-4.01.21-6.364.636-10.358.4-3.75 2.779-8.434 6.095-10.393 1.853-1.095 5.399-1.255 6.12-1.885 2.634-2.305 4.412-15.232 8.239-16.292 1.783-.495 3.626.645 4.262 2.295 1.147-2.55 5.889-2.695 6.661-.15 1.317 4.349-3.646 10.748-4.918 14.872-.015.365 2.814.775 3.55 1.974.576.935.321 1.95.747 2.755 1.262 2.409 2.724 2.569 2.193 6.239-.4 2.754-5.935 11.308-7.983 13.512-2.494 2.69-6.636 4.644-8.915 7.584-4.247 5.469-8.619 18.271-12.696 25.285-3.496 6.019-12.43 20.031-18.245 23.246-9.646 5.329-24.46-8.694-30.701-15.183l-3.551 1.55-3.961-3.774v30.964h75.074c.396-4.794 2.414-9.628 4.127-14.107 6.095-15.922 19.036-46.507 30.891-58.074 9.401-9.174 23.95-14.703 37.056-14.713-.515-3.084 1.919-7.968 1.498-10.702-.14-.91-3.045-5.659-3.736-7.299-3.376-7.994-6.852-16.627-6.271-25.455zm-68.067 39.452c.661-3.844 6.796-14.202 5.243-17.471-.475-1-1.162-1.2-2.018-.54-2.244 1.724-8.359 21.541-10.988 21.501l-1.152-1.235 2.399-3.505c-4.878-.469-8.459 5.1-8.95 9.544-.406 3.669 1.492 7.073-.471 10.523l-21.38 26.625c.36.824 1.482 4.339-.486 3.014-1.638-1.105-3.511-5.449-5.023-6.974-.416-.415-.461-.705-1.217-.525-3.787 7.739-9.496 15.787-17.524 19.482 5.404 6.124 17.914 17.841 26.669 15.872 6.405-1.445 18.906-22.741 22.137-28.85 2.719-5.144 4.737-10.603 7.317-15.672 3.771-7.408 6.956-6.988 11.694-12.302 2.795-3.135 10.192-13.008 5.499-16.477-1.357 1.029-1.598 3.344-3.751 2.984l3-6.484-2.665-.46-2.093 2.95-1.247-.76c-.165-.82 6.045-12.868 6.666-15.312.33-1.31.886-2.905-.411-3.904-.961-.18-1.172.135-1.683.809-1.928 2.535-6.605 16.787-8.058 17.442l-1.512-.28zM19.943 345.719c.366.565 11.634 2.3 13.262 2.5 16.082 1.98 34.853 2.035 50.985.56 1.657-.15 11.048-1.28 11.564-1.965l-1.318-29.219.321-28.515-14.314-17.446c.456-2.245 3.952 1.874 4.518 2.474 2.113 2.245 14.784 18.397 16.162 18.177 9.325-5.259 16.462-12.908 20.859-22.671-10.302-12.123-18.125-29.425-33.19-36.283-8.494-3.864-27.736-7.634-37.186-8.339-38.214-2.849-48.556 28.61-49.733 60.619-.05 1.345-.34 5.884.486 6.499l14.028 2.239-1.507-32.709c.08-.634 1.843-.275 1.928.575l3.145 83.509zm274.274-34.458c.917.575 13.498-3.909 15.441-4.689 1.738-.7 10.112-4.229 10.447-5.579-4.062-15.932-7.833-38.158-21.215-49.086-14.239-11.628-45.616-17.236-63.39-14.342-30.731 5.009-40.467 30.784-51.46 56.049l.801 1.18 20.729 8.828c.772-2.334 4.428-6.088 4.889-8.138 1.031-4.584-1.468-13.053-.917-17.897.135-1.209.556-2.409 1.793-1.239l2.259 39.697-.05 45.411c.215.785 11.654 2.965 13.367 3.23 16.327 2.544 35.534 2.734 51.916.505 4.818-.655 9.551-1.97 14.293-2.965-1.031-11.997-.185-24.145-.45-36.203-.085-3.949.165-9.873-.126-13.337-.315-3.745-6.325-15.912-7.908-20.586-.44-1.3-1.046-2.575-1.001-4l1.527-.025 9.055 23.181zm124.561-39.393h17.269c2.224 0-1.432 7.819-.501 8.989 3.676-4.309 12.06-10.428 13.533-15.962 2.068-7.779.155-19.337.475-27.495-7.993 1.52-16.091 2.699-24.27 2.51l3.927 19.606c-2.595 4.774-6.972 8.253-10.433 12.352Zm3.506-6.988c1.177-.805 4.718-4.624 4.858-5.799l-2.864-14.677-1.994 16.731zm-48.801 23.47h39.04c.361 0 .972 1.085.656 1.61l-8.869 38.138c-1.097 1.395-3.606.215-5.279.185-6.791-.125-13.528.285-20.294.53 2.885 2.109 5.429 8.058 7.768 9.973.471.39.816.61 1.462.54l31.763-.08 15.065-65.368-73.592.225-12.486 53.965c1.718.33 6.822 1.879 8.189 1.614.902-.174 4.322-3.524 6.466-2.969l.771-.73 9.335-37.633zm37.287 2h-35.784l-8.76 35.953 36.23.535zm-394.393 5.989-14.023-1.74c.881 5.889.49 12.003 1.012 17.967 1.382 15.707 6.956 30.664 13.757 44.706.887-8.843.967-17.826.772-26.745-.025-1.179-.516-2.274-.541-3.454-.22-10.248-.256-20.546-.977-30.739zm337.835-.995h-8.009v28.215c0 .09-1.162 1.249-1.252 1.249h-10.512c-.676 0-2.549-1.034-3.751-.494-.121.719.881.694 1.397.839 1.828.515 14.579 3.2 15.12 2.655zM211.57 357.272v-17.731l-14.944-18.592c-.501-2.509 8.118-14.717 7.437-15.612l-21.471-8.958c-2.328 7.893-10.547 20.261-8.839 28.454 1.277 6.104 15.375 17.037 20.639 20.851 5.579 4.045 11.724 7.344 17.173 11.578zm0-34.958-1.252-22.981-11.684 20.321c-.08.515 1.512 2.66 1.673 2.66zm162.414 17.477c2.985-.495 7.127.364 10.262 0-.781-2.615-7.006-10.458-9.38-10.908-1.388-.265-2.129.455-2.85.435-.295-.01-.23-.91-.621-1.01-4.923-1.22-10.798 1.09-14.855 3.464-7.357-1.855-15.105-2.269-22.442-4.124-6.12-1.55-7.217-2.1-9.435-8.069-1.888-5.074-2.7-10.588-4.242-15.757-8.014 4.16-16.538 7.184-25.267 9.504 3.831 8.038 6.801 17.286 11.248 24.975 2.53 4.374 3.717 6.224 8.88 7.618 9.972 2.695 37.898-.175 49.061-1.769 4.287-.61 7.022-3.93 9.641-4.364zm-76.827-16.987-3-5.984.215 5.514 2.78.475zm-102.104 25.975c-8.324-7.244-21.115-13.963-23.529-25.475-.195-.205-.641.505-.746.505H96.956l1.001 24.97zm16.517-24.47h-9.51l9.51 11.487zm83.083.499v23.971h24.025l-5.86-1.395c-4.848-1.83-6.956-5.969-9.245-10.253-1.127-2.105-4.483-10.798-5.66-11.833-.921-.81-2.138-.455-3.26-.495zm124.125 16.482-43.807.49-6.741 3.505 49.211-.065c1.242-.345 1.468-2.825 1.337-3.93ZM211.07 359.267l-12.762-8.489H97.958c.28 2.635 0 6.299 1.251 8.489zm239.741-8.489-156.158.5v7.989h156.158z"/><path d="M59.914 394.725c-3.025.56-2.319-1.91-3.496-3.749-2.524-3.94-9.345-9.049-12.505-12.993-.937-1.17-3.01-3.054-1.267-4.219l15.27 15.717zm61.943-308.511c23.884-3 41.544 20.036 31.888 42.302-3.356 7.743-10.833 11.707-11.74 20.751-.456 4.549.957 11.713-.756 15.727-.842 1.969-4.397 5.134-6.541 5.464-2.835.435-13.032.385-15.861-.09-3.236-.545-6.892-4.414-7.332-7.664-.596-4.379.15-9.763-.596-14.387-1.423-8.833-9.311-13.313-12.346-21.641-6.4-17.552 4.217-38.068 23.289-40.462zm18.14 66.297c-1.207-12.023 9.991-17.512 13.152-28.075 10.472-35.028-40.317-51.03-52.572-18.996-5.424 14.177-.191 21.371 7.597 32.134 3.225 4.459 5.274 9.293 4.798 14.942h8.008l-3.936-34.128c.09-.27.506-.83.681-.83h17.519c.175 0 .591.555.681.83l-3.936 34.128h8.008zm-6.005-32.964h-15.015l4.077 32.894 6.931.065zm6.005 34.959h-26.529V159h26.529zm0 6.494h-26.529c-.351 2.679 2.549 6.548 4.983 7.263 2.033.6 12.285.495 14.81.255 4.056-.395 6.646-3.504 6.731-7.518zm33.285-69.417h62.063l.751.75v20.475l-.751.75h-62.063l-.751-.75V92.332zm60.811 1.994h-59.559v17.977h59.559zm-60.811 32.964h61.562c.941 0 .941 2.5 0 2.5h-61.562c-.766 0-1.162-2.05 0-2.5Zm-.751 15.982v-2h62.814l.746.755-.746 1.245zm0 13.982c-.566-.769-.03-2.499.751-2.499h41.544c.941 0 .941 2.499 0 2.499zM357.096 16.297c17.384-2.36 29.675 14.607 22.573 30.514-9.576 21.451-43.307 12.303-39.841-13.282 1.117-8.234 9.035-16.112 17.268-17.232Zm.501 2c-13.537 1.854-20.243 17.836-13.101 29.294 7.161 11.498 23.173 12.368 31.447 1.495 10.347-13.593-1.247-33.134-18.346-30.79Zm22.642 49.31h-39.29l-.746-.755.746-1.24h38.539c.531 0 .952 1.42.751 2zm19.017 231.731c.591.585-2.92 14.667-3.516 16.217-.29.76-.531 1.285-1.237 1.765h-15.516c-.075 0-1.227-.52-1.252-.795 2.009-5.534 2.154-12.053 4.753-17.182h16.768zm-2.499 2h-12.761c-1.999 4.279-2.429 9.383-3.757 13.982h13.513z"/></g><defs><clipPath id="a"><path fill="#fff" d="M0 0h453v395H0z"/></clipPath></defs></svg>