<svg xmlns="http://www.w3.org/2000/svg" width="577" height="359" fill="none"><g fill="#F377DE" clip-path="url(#a)"><path d="M61.611 356.172c-6.343-32.533-14.122-65.271-24.81-96.64-3.968-11.645-17.639-40.986-16.861-51.311.47-6.232 6.312-9.749 12.185-9.492 18.228.795 34.89 31.318 41.835 45.842 2.978 6.226 5.297 14.736 8.4 20.368.225.413.42.976.965 1.02 2.664-24.116 12.035-47.92 25.788-67.806 14.016-20.261 35.309-36.612 59.204-43.514 1.523-.438 9.86-2.027 10.205-2.421.213-.244.295-2.015.52-2.566-2.933.444-7.421-1.07-8.763-3.861-.57-1.189-.401-3.291-.602-3.598-.15-.225-2.952-.876-4.3-3.003-1.059-1.671-2.983-8.016-.959-9.242.577-.351 6.049.844 7.535-.201-2.708-2.052-4.971-6.026-4.664-9.523.27-3.06 2.589-.539 3.648-.295 1.931.451 8.394-.087 10.023-1.201 4.257-12.615 8.337-21.544 22.291-24.742 2.576-.588 7.095-.657 9.126-1.401.784-.288.633-1.89 3.216-1.784 2.583.107 2.244 1.953 3.899 2.778 5.065 2.522 10.531 2.285 16.053 6.533 6.344 4.887 7.591 12.753 9.077 20.13l22.472 10.744c3.291 1.99 4.406 5.932-.013 7.234-4.971 1.47-10.863.313-15.896-.651-2.056-.394-5.987-2.077-7.685-2.027-2.84.081-7.127 4.286-7.265 7.277-.245 5.338 9.672 14.974-3.116 14.361-.044 1.433-.332 3.085-1.554 3.986-.502.369-1.436.35-1.549.457-.169.162.69 2.709-1.109 4.399-.583.55-1.724.65-2.05 1.157-1.09 1.708.477 3.974-2.607 6.139-5.379 3.773-12.148-1.546-16.63-4.518-3.893 2.227-7.992 4.005-10.845 7.628-.175.782 2.596 2.108 3.323 2.828 4.789 4.731 7.76 12.54 9.973 18.797 1.899 5.369 6.443 24.185 9.546 27.182.909.876 3.059 1.308 3.517 2.241.689 1.407-.376 2.671-.019 3.529.075.175 2.288 2.791 2.451 2.884.752.438 1.88.088 2.777.326 1.235.331 2.169 1.915 3.009 2.302.84.388 1.962.188 2.776.657.759.439 1.925 3.198 3.084 3.667l22.335 6.433c10.524-4.618 15.796-8.166 27.624-4.987 9.553 2.565 12.411 8.485 13.295 17.909l5.297-.019 22.723-89.206c.846-1.007 10.612-.851 12.543-.97 18.259-1.164 36.657-2.853 54.91-3.573 1.254-.05 3.836-.344 4.457.901l-23.782 97.891-27.405 6.045 16.887 84.863 4.839-.182-6.676-48.225c-.201-3.686 4.194-2.097 6.663-2.41l-2.908-13.71 7.741-2.609 2.238 7.722 5.554-1.164c1.322 1.527 1.329 7.396 2.513 9.461.69 1.208 2.081.801 2.727-.25l3.817-17.396 13.578 3.323c.733 1.02-1.981 11.345-1.918 13.622.018.832 1.341 2.078 1.216 5.194-.508 12.415-3.329 25.956-4.426 38.477-.238 2.703-.414 5.469-.445 8.178h66.469l-7.139-52.137c-.821-.519-4.031 1.314-4.752-.788-.25-.726-.275-11.639-.075-12.753.226-1.232 1.348-1.433 2.432-1.558 4.846-.557 13.101-.194 18.197-.012.997.037 4.821 1.451 4.1-.557-.32-.895-6.851-10.431-7.441-10.707-8.474-1.439-17.169-1.407-24.829-5.738-7.478-4.223-13.408-13.685-17.35-21.162-.658-1.252-3.178-5.444-2.395-6.52l.546-.345c15.395-.75 36.425 4.262 42.913 19.843 1.836 4.411 2.093 9.699 3.679 13.572.458 1.126 6.557 10.268 7.428 11.157 1.686 1.721 2.564.457 4.632.463l-6.889-32.701c-9.22-6.445-20.09-11.145-27.461-19.918-13.985-16.651-1.385-44.997 2.244-63.662.677-1.171 1.417-1.002 2.382-.219 10.481 10.318 22.202 19.548 30.828 31.587 6.149-10.719 14.316-20.481 22.597-29.629 7.365-8.141 15.658-16.175 23.707-23.659.89-.832 5.836-5.55 6.218-5.732.564-.269 1.141-.319 1.742-.213 1.53 10.544 3.511 21.088 4.833 31.669 1.95 15.644 3.699 34.397-1.692 49.49-6.168 17.27-27.336 27.044-42.462 35.242l-8.073 28.202 3.008-.094c2.915-4.937 7.598-9.148 10.644-13.917 4.996-7.815 3.774-17.257 12.8-22.601 8.005-4.737 30.984-5.989 40.261-4.975.671.075 1.097.044 1.524.682-7.635 9.299-16.668 23.853-28.791 27.426-7.597 2.24-15.627 2.09-23.186-.162l-10.494 13.203h25.701v15.481l-5.466-.019-.621 1.22-6.325 50.541h24.597c.094 0 1.273 1.076 1.104 1.539l-1.53.689c-159.071.406-318.262-.82-477.27.438a728 728 0 0 1-27.418-.294c-2.006-.057-6.5 1.257-4.062-2.378h32.125zM210.51 95.25c-14.981.432-23.813 9.881-26.847 23.897l13.095 2.172c2.212-9.612 6.118-19.542 13.759-26.069zm11.077 27.858v-13.491c0-.419-.978-4.267-1.198-4.999-.733-2.447-3.874-9.38-7.077-8.16-6.945 2.64-12.981 18.247-14.329 25.092l22.61 1.552zm19.883-3.16c.752-13.897-9.434-21.6-22.096-23.822.902 1.984 1.937 3.886 2.664 5.964 2.313 6.601 2.307 13.647 2.206 20.574zm-28.302 5.375c-5.648-.106-11.389-.625-17-1.389-4.155-.569-11.377-2.809-14.755-2.928-1.103-.038-5.015 1.595-7.033 1.664-1.668.056-3.009-.5-4.633-.444.283 1.896 1.712 4.374 3.529 5.093.746.295 3.342.207 3.078 1.696-.357 2.034-8.098 5.181-10.148 3.379-.533 6.02 3.034 7.678 8.418 7.966.614 1.596-1.648 1.977-1.786 2.515-.621 2.447 1.31 3.648 3.441 4.005s3.987-.588 5.479.307c.802 1.051-1.16 4.68.846 5.788 2.814 1.401 9.333-6.389 9.565-9.055.038-.419-2.244-3.447-2.57-4.574-1.83-6.232 1.611-14.386 9.083-13.04 3.103.563 4.607 6.22 5.792 6.038l8.713-7.027zm47.414 5.307-18.41-8.392-17.921 3.079 22.873 7.058c3.623-.575 7.334-.563 10.969-.926.495-.05 2.439-.2 2.489-.826zm-37.153-2.597c-1.98 4.605-6.631 2.503-9.515-.006-1.605 1.188-3.422 2.19-4.946 3.497-1.817 1.565-3.554 5.319-5.867 3.392s-3.009-8.817-8.412-5.701c-6.155 3.542-2.802 15.262 2.99 14.493 1.135-.151 3.974-2.754 4.256-.488.383 3.028-5.892 3.454-7.81 1.996-1.617 4.905-10.217 15.111-14.856 8.41-1.461 2.033-3.761 1.764-5.986 2.215-.107.513.062.851.238 1.308 1.291 3.316 6.832 11.138 9.152 14.31 2.589 3.542 5.459 6.946 8.562 10.031 2.47-6.508 7.629-12.127 14.399-14.154-3.203-5.407-7.905-11.395-6.137-18.059l1.705-.069c-.163 5.463 2.294 11.883 5.98 15.925 2.808 3.079 14.01 10.788 16.824 4.837.125-.263 1.041-3.617 1.041-3.817 0-.914-1.423-1.27-.383-2.609.834-1.077 1.994-.019 3.128-.188.314-2.597-3.04-1.715-3.773-3.085-1.348-2.503 5.447-.175 6.688-1.752l-1.135-4.449c1.336.244 6.187 1.026 6.902.025 0-5.707-4.407-10.375-1.58-16.388-3.259-.426-5.052-3.16-8.612-2.635-1.461.219-2.608 1.627-4.238.858 1.429-5.957 11.227-3.542 13.515.882l5.541-3.529c-6.243-.382-11.828-3.711-17.658-5.25zm43.358 7.014c.759-.832-3.591-3.009-4.231-3.078-.138-.013-.156.951-1.391 1.207-2.714.564-6.193.595-9.002.989l5.987 1.314 8.631-.438zm261.453 45.548 10.192-30.073-14.963 14.429c-.138.739 3.335 13.041 3.912 14.518.182.456.175 1.07.859 1.132zm1.341 2.659 14.568-10.03-3.053-22.696zm-358.574-26.468c-.67-.42-3.359.438-4.199.776-.445.181-.765-.245-.608.694 7.916 11.119 14.649 23.403 25.474 32.063l1.943-3.316c-9.647-8.204-17.068-18.885-22.61-30.217m22.673 35.316c-.451 2.929-3.592-.031-4.889-1.101-10.337-8.566-17.614-21.407-25.011-32.407-12.913 5.325-25.487 12.183-35.924 21.55-19.306 17.327-34.338 46.474-39.873 71.654-3.071 13.967-3.748 33.296-9.446 45.854-1.153 2.541-4.752 6.884-4.219 9.33.828 3.823 3.266 3.223 6.156 2.328 7.353-2.272 15.89-6.996 23.262-9.949 15.426-6.189 30.771-11.445 47.401-13.51-5.61-17.709-9.44-35.93-12.882-54.189.025-1.026 1.592-1.684 2.238.018 2.125 5.601 3.191 16.702 4.651 23.222 2.138 9.542 6.946 32.426 12.643 39.565 4.25 5.325 8.287 3.842 14.261 2.754 10.092-1.834 21.833-4.55 31.736-7.24 1.229-.332 6.187-1.527 6.733-2.121 2.137-2.328.238-21.751.238-25.912-3.072-.432-5.936-2.103-9.07-1.69-.659.57-2.965 13.078-3.686 15.118-.527 1.502-2.238 1.001-2.094-1.164.232-3.448 3.868-12.934 3.536-15.093-.151-.97-3.699-3.003-4.683-3.322-1.36-.438.113 1.395-.401 2.208-.721.901-2.852.833-3.391 1.621-.759 1.12-2.965 7.703-3.63 9.53-.52 1.446-2.206 8.435-2.557 8.729-.263.219-1.981.088-2.1-.632 1.066-5.8 3.347-11.213 5.66-16.601-7.635 3.454-13.577 9.762-17.946 16.795-2.438-1.458.577-4.887 1.812-6.589 5.033-6.939 12.292-11.614 20.115-14.855-1.743-2.359-2.226-5.588-5.542-6.408-6.237 4.944-14.354 6.008-22.139 5.294-.884-.081-3.46-.375-3.724-1.145l-.05-1.495c7.61.719 15.326.719 22.159-3.104.175-.876-.414-1.058-1.016-1.408-2.958-1.721-8.637-2.703-12.298-4.53-1.824-.914-8.437-4.08-5.968-6.42 5.535 3.723 11.597 6.388 17.947 8.391l-7.748-50.86c-3.573-20.412-20.761-20.838-30.715-4.112-3.855 6.477-5.403 14.173-6.287 21.588-.219 1.865.602 4.105-1.116 5.526-.67.156-.996-.526-1.097-1.108-.62-3.466 1.455-14.117 2.539-17.802 3.366-11.445 14.693-27.401 28.577-21.219 8.068 3.592 9.986 14.104 11.346 21.845 2.351 13.39 3.115 27.107 6.055 40.391 8.713-12.565 12.537-29.672 11.296-44.878-.044-.532-.17-2.359-.872-2.434zm328.36-25.211c-.439-.507-2.708 1.996-3.109 2.422-3.147 3.279-6.068 6.871-9.189 10.181l10.537 23.665c.608-.056.714-.632.902-1.082.872-2.078 5.191-15.694 5.209-17.264.038-3.323-3.209-11.852-4.149-15.682a7.7 7.7 0 0 1-.201-2.233zM397.513 169.1l-66.89 3.999-24.835 96.827 3.517.413 19.093-74.707 1.705.506-18.548 72.905 64.608-11.588 21.356-88.355zm68.243 30.518c.633-4.13 3.378-7.591 4.375-11.627l-12.342-12.252c2.194 7.797 4.789 15.456 7.07 23.234.189.645-.25.77.897.645m57.618 3.535 22.842-13.272-1.579-14.142-15.966 10.819c-1.981 5.451-4.012 10.938-5.297 16.601zm-59.831-1.771-7.528-22.545-4.225 17.27zm-242.841 27.426c-2.871-.807-4.445-3.66-5.529-6.207-3.855-9.017-10.029-38.909-18.517-42.995-.52-.25-1.046-.45-1.629-.319l-.464 1.752c2.632-.776 2.971 2.516 2.557 4.543-.169.814-.971 1.514-1.028 2.297-.119 1.564 1.016 5.55 1.122 7.54.752 13.522-2.231 26.794-7.979 38.952.902 2.559 2.476 4.937 2.908 7.678.546 3.467-.332 7.065 1.611 10.331.702 1.176 6.983 3.285 8.224 5.062l8.538 1.233c4.613-7.891 10.856-14.786 17.714-20.806l-3.084-1.352-11.835 9.912-1.278-.82c-.483-.782.426-1.314.902-1.783 2.871-2.841 6.877-5.419 9.766-8.391l.213-1.32c-1.554-2.222-7.12 4.242-8.838 4.68-.965.25-1.674-1.17-.934-2.278 1.103-1.658 6.645-4.417 7.064-5.118.076-.125-.808-1.796.496-2.597zm288.036-47.324c-.74-.557-3.347 2.759-3.034 3.648l12.342 26.863 1.323-5.144-10.631-25.374zm-4.426 5.306c-.714-.163-.902.244-1.341.651-1.335 1.232-3.379 4.036-4.595 5.587-1.034 1.321-5.597 7.315-5.485 8.511l16.292 36.555 7.422-23.152c-3.636-8.585-7.967-16.933-11.622-25.499-.357-.845-.658-1.715-.677-2.647zm-33.241 31.4 8.331-20.193c.157-1.702-6.024-6.489-7.215-8.11l-5.566 13.491 4.457 14.805zm75.34-25.65a177 177 0 0 0-10.042 5.232c-3.442 1.921-10.682 5.6-13.421 7.834-1.304 1.057-2.094 3.429-2.225 5.068l25.7-13.922c1.072-1.208.044-2.854 0-4.205zm-81.539 13.26c-.32-.739-.664-1.483-1.354-1.965-1.824-1.27-9.258-4.33-11.653-5.187-1.504-.545-1.529 1.232-.733 2.071zm11.96 30.079c2.714-8.954 6.87-17.527 10.976-25.943-.991-4.061-4.012-7.371-6.312-10.756-1.643 3.153-3.04 6.463-4.42 9.736-.952 2.259-4.851 10.988-4.995 12.659-.063.707 3.284 12.195 3.83 13.685.225.613-.151.751.927.619zm70.024-36.706c-.446-.457-5.73 2.384-6.657 2.866-6.921 3.567-13.603 7.665-20.366 11.52l-6.657 19.667c10.668-5.769 21.105-12.045 32.232-16.914 1.422-5.575 1.51-11.419 1.441-17.139zM90.414 356.172h24.817l-9.02-3.16c-11.377-4.837-15.182-12.334-18.46-23.822-7.14 3.548-8.425-3.698-10.306-8.942-.865-2.403-1.329-5.907-2.187-7.991-.389-.945-1.9-1.02-2.59-3.166-1.805-5.594 1.098-6.858 3.204-11.001s3.284-9.304 4.212-13.929c.834-4.155 2.495-11.907 1.492-15.8-1.185-4.599-5.347-13.103-7.478-17.746-6.65-14.529-19.306-39.672-33.9-47.105-5.64-2.873-15.05-4.093-17.582 3.178 12.424-.463 18.887 16.207 23.118 25.793 15.075 34.172 19.175 72.699 34.99 106.157 2.864 6.064 6.713 11.539 9.684 17.534zM468.86 219.96l-3.323-11.494-15.282-6.195-1.141 8.403zm23.042-16.363c-1.16-.213-.683.188-.921.632-.301.557-.884 2.059-.847 2.653.069 1.12 2.357 5.795 2.809 7.847 1.723 7.866.608 14.179-1.818 21.751l10.6 19.905 1.253.732 4.795-16.025-15.877-37.488zm-403.7 152.575L78.518 338.2C61.92 300.937 58.734 257.893 39.09 221.875c-3.403-6.239-8.713-14.799-16.924-13.597-.132 3.247.646 6.451 1.467 9.567 3.165 12.027 9.84 25.237 14.066 37.27 7.91 22.532 14.317 46.379 19.72 69.657 2.407 10.387 4.695 20.918 6.419 31.406h24.371zM481.71 251.36c5.754-12.171 11.903-25.174 7.534-38.915l-11.841 26.819c-.056.657 2.884 10.363 3.385 11.47.239.52-.207.801.922.62zm-11.521-26.538-.214-1.77-21.049-10.169-.407 1.921 21.67 10.025zm4.438 13.266-4-11.263-22.146-9.518c.402 1.99.746 8.804 2.238 9.924l23.908 10.851zm70.011-19.01-32.069 16.864-1.611 3.035 32.062-15.982c1.348-.776 1.643-2.478 1.611-3.911zm-1.768 6.633-32.595 16.332-5.065 15.061c14.016-8.347 30.821-15.43 37.66-31.393m-67.46 15.137-24.271-10.713c6.619 10.193 17.765 15.7 27.7 22.107zm-285.729 6.97v-6.413c0-.288-1.266-2.804-1.561-3.329-.276-.501.031-1.077-.871-.87-3.88 4.987-5.134 9.167 2.432 10.612m30.031 9.624c.37-.35 1.147-2.565 1.693-3.391 3.291-4.981 7.001-9.799 11.696-13.523l-2.425-1.971c-6.388 6.195-12.368 12.822-17.502 20.112-.1 1.17.207.413.778.338.978-.132 5.253-1.089 5.754-1.558zm270.203-17.571-7.647 15.613c2.037 3.823 5.961 32.757 7.409 33.702.564.369 2.137.369 2.695 0l8.732-29.134zm-233.759 8.398c-4.826.613-18.197-6.095-21.82-5.225-2.2.532-8.08 8.241-9.565 10.387-.332.482-2.169 2.941-1.849 3.235 8.876-2.033 18.009-3.235 26.772-5.782 2.043-.594 4.958-1.207 6.462-2.615m42.092 11.933c-.708-6.827-2.808-12.421-9.628-14.937-12.85-4.743-18.41.883-29.699 5.094-14.906 5.556-30.515 7.077-45.696 11.67l.388 22.051 21.068-9.261c1.667-1.815-.727-6.595 2.294-7.465 1.956-.563 2.545.97 3.905 1.233 6.952 1.314 18.718-1.715 24.873-5.213 2.953-1.677 9.177-7.258 11.929-7.584 5.021-.594 8.462 4.606 13.032 4.412-3.304-4.474-7.848-6.326-13.295-6.852l-.383-1.258 1.135-1.101c3.823.519 7.81.976 10.775 3.679l5.309 5.532c-1.51-8.848-8.612-11.307-16.579-12.327l-.257-2.266c9.408.282 18.259 4.199 19.08 14.568l1.743.025zm140.38-13.604c-2.27-.669-4.639-.588-6.983-.538l7.76 4.411.627-.625-1.411-3.248zm9.847 9.18-1.993-7.96-5.98-1.32c1.065 4.856 3.378 7.409 7.973 9.28m-9.308-3.529-7.529-3.986 3.805 6.157c.508-.344 4.551-1.183 3.717-2.165zm19.5 10.606-3.322-11.495-6.419-3.104 1.893 9.167zm87.299-12.822-5.672.526-3.63 6.99c4.376-1.102 8.03-2.885 9.302-7.509zm10.199 0h-8.418l-.884 3.536zm-18.172.445c-1.931.794-7.409.851-8.625 2.221-.658.739-4.194 10.131-3.774 10.6l7.961-4.211zM468.42 270.37c-1.085-3.711-2.081-7.459-3.216-11.163-.163-.526.113-1.152-.119-1.633-.514-1.052-7.246-5.845-7.741-5.332 1.548 3.329 2.037 9.405 3.798 12.346.577.958 4.764 4.224 5.943 5.125.445.338.558.864 1.329.657zm89.073-18.121-15.508 5.519 8.65 2.815zm-34.633 13.196 3.605-12.32c-7.196 2.19-11.183 9.317-12.763 16.231-.131.57-.294 1.339.571 1.014 2.294-.87 5.547-4.781 8.587-4.925m-74.386-7.446-7.058-4.236-4.927 2.265c-.15.92 2.476 4.793 3.41 4.975zm-173.708 2.203h8.418c-.144-.632-1.88-1.214-2.413-1.346-.74-.181-1.429-.544-2.231-.45zm268.554 7.515 5.742-5.525-9.973-3.148-8.631 4.48c3.616 1.252 9.22 1.684 12.524 3.336.332.162.376.532.332.857zm-86.428-3.967-6.412-4.255-9.534 2.928 3.404 4.449c3.823-.932 7.778-1.539 11.577-2.547.458-.118 1.097.075.965-.569zm-81.538-3.542-66.256 11.933-68.632.419c-.426.113-.383 1.552-.947 2.228-.84 1.007-3.046 1.114-3.755 2.215h71.115l65.823-12.59c2.05-.232 2.476-2.478 2.646-4.211zm92.627 1.327c.057 1.896 2.269 12.683 3.761 12.815.991-.651.47-.901.364-1.671-.389-2.747-1.906-6.764-3.047-9.349-.244-.544-.426-1.77-1.078-1.789zm-163.083 1.32h-31.686c-2.865 0-7.447 4.849-10.857 4.868-.119.732 1.072.476 1.567.457 1.26-.044 2.338-.438 3.51-.482 11.91-.444 23.926.351 35.842.038l1.624-4.887zm236.636 5.757c-3.887-.05-10.111-3.498-13.577-3.529-1.423-.013-2.614 1.727-4.15 1.764-.207 1.145.157.682.627.92 3.516 1.777 7.935 2.121 10.731 5.2.878-.1 7.253-3.385 6.362-4.349zm-71.791 6.626c.225-.869-.358-.857-.746-1.245-1.473-1.477-8.745-8.091-10.212-8.397l-12.53 2.571c6.557 5.363 15.558 5.188 23.481 7.071zm62.927-1.758-11.74-4.693-7.754 5.125c5.792 1.47 12.436 1.927 18.253.313.458-.126 1.342-.107 1.235-.739zm-185.279-1.727-1.724-.05c5.397 28.114 11.051 56.223 15.984 84.437l1.743.032-15.997-84.425zm-40.262 7.484 15.264 76.503 36.594.219-15.539-83.824-36.319 7.096zM95.291 326.543c.853-.188 1.06.432 1.505.926 3.435 3.779 6.669 8.923 10.023 12.99 4.387 5.319 9.095 10.394 13.596 15.619 12.072-.326 24.697.744 36.707.112 26.941-1.42 67.504-18.159 91.649-30.598 12.38-6.377 33.486-15.763 25.55-33.334-4.933-10.925-15.959-13.234-26.835-13.059-4.657.075-12.693-.281-16.767.144-2.063.213-11.509 5.231-14.33 6.408-.733.306-2.633.494-2.733.594-.577.582.577 2.534-2.846 4.017-4.927 2.141-15.859 4.143-21.575 5.444-6.225 1.415-21.162 5.388-26.779 4.6-1.542-.219-3.284-1.183-4.469-2.172-.89-.744-1.047-2.434-2.614-2.209-5.779 1.746-11.678 3.192-17.338 5.294-1.479.551-5.679 1.821-6.337 2.966l-4.965 17.383c-1.247.251-.965-.525-.777-1.445 1.015-5.081 3.78-10.588 4.77-15.8-5.309 2.484-10.875 4.806-15.965 7.728-.753.432-3.686 1.877-3.517 2.634.502 2.228 12.186 9.43 14.749 10.5 13.778 5.751 32.978 1.859 47.358-.663 28.759-5.037 56.766-13.479 85.362-19.185 1.46-.288 2.94-.682 4.394-.927.94-.162.527.263.564.789-32.927 6.839-65.354 16.595-98.676 21.6-12.9 1.94-25.75 4.174-38.368-.481-6.043-2.228-12.011-6.633-16.361-11.314l-.508-.025L89.944 327.2c-.953 1.076 1.016 5.419 1.561 6.839 2.764 7.184 5.698 12.008 12.681 15.65 4.2 2.19 9.145 3.742 13.684 5.137-4.275-4.931-8.72-9.755-12.838-14.824-2.633-3.241-7.114-8.303-9.114-11.695-.345-.582-.89-.869-.646-1.783zm196.757 29.184h23.042l-14.179-76.509-35.892.451 5.992 3.967c6.964 6.464 9.453 15.499 5.316 24.347-4.67 9.993-16.705 14.148-25.487 19.667 5.472 5.375 11.797 9.249 18.936 12.052 8.256 3.248 21.689 4.912 22.266 16.032zm12.844-76.503-1.335.207-.408.851 14.649 75.402 2.169.043-15.069-76.503zM77.126 312.395c1.435 2.791 3.754 13.653 6.042 14.98.508.294.99.563 1.611.419 16.981-10.669 33.862-21.75 52.83-28.677 3.591-1.308 7.315-2.51 10.969-3.648 1.009-.313 6.049-1.252 6.087-1.871-1.273-1.177-1.699-5.326-3.329-5.551-16.065 2.015-30.946 7.096-45.84 13.084-7.798 3.135-16.04 7.578-23.826 10.275-1.467.507-2.977.958-4.544.995zm326.573-20.331-9.283-1.345-2.232 14.824c1.58.939 2.627-.964 3.812-1.12.971-.125 5.39 1.026 5.942.444l.445-4.856-5.065-.838c-1.454-4.412 4.118-.532 5.535-1.558l.834-5.551zm120.559 9.712v-9.949l-.664-.664h-65.586l-.664.664v10.393zm-148.014 3.98c-.069-1.752-2.47-13.097-3.071-13.516-.508-.351-1.223-.169-1.793-.194l3.053 13.447 1.817.256zm4.864-7.509-2.645.688 1.542 6.389 2.451.432c.219-2.597-1.053-4.969-1.341-7.509zm136.719 6.182h-55.174l6.901 51.768 42.287-.025 5.98-51.749zm-114.993 3.098h-35.892l.445 6.632h35.009l.445-6.632zm-.883 8.397h-34.125l3.986 30.962 26.973-.063c1.511-10.162 2.802-20.587 3.166-30.893zm-194.764 30.517h35.009c3.309-4.643 5.917-9.805 10.85-13.046l-5.077-4.168zm37.002 0h36.783c.1-.644-.746-.582-1.223-.769-4.594-1.827-9.427-2.804-14.147-4.906-3.811-1.702-7.265-3.98-10.982-5.851-4.745 2.541-7.353 7.353-10.437 11.52zm-10.637 2.215h-33.016c-2.852 0-6.926 3.911-5.98 7.078h38.996c-1.542-2.291-.966-4.681 0-7.078m55.838 7.071c-.094-3.047-1.805-6.62-5.134-7.033l-42.28.407c1.423 2.159 1.129 4.405 0 6.626zm108.793-7.071h-25.261l-.677 1.102.896 6.42 24.56.025c.338-.056 1.071-5.87 1.059-6.545-.013-.545-.169-.682-.583-.995zm-161.66.532c-3.072.914-2.188 7.159 1.573 6.471 4.576-.839 3.316-7.929-1.573-6.471m-43.295 1.684-19.056 5.3 18.172-.438c-.069-1.771-.195-3.361.884-4.862"/><path d="M349.654 96.133c-.401.288 5.503 7.402 3.56 8.635l-27.493 5.513 9.66 16.244c1.097 3.485-5.197 7.59-7.999 6.201-3.265-1.621-8.988-14.11-11.446-17.558l-7.459 3.11c.364 2.108 1.454 3.942 2.056 6.057 3.404 11.989 1.103 21.938-6.951 31.287-1.091 1.27-7.322 7.621-8.463 7.527-1.479-.125-2.162-.857-1.316-2.252.633-1.051 5.46-4.775 6.895-6.383 6.682-7.484 9.86-15.155 8.074-25.317-.207-1.189-2.633-9.68-3.028-10.018-.282-.238-2.056.156-3.053-.276-1.216-.532-1.297-2.603-2.049-2.834-1.078-.338-3.598 1.558-5.491.638-.815-.4-4.344-8.228-4.369-9.305-.057-2.215 3.704-2.59 3.836-3.51-.922-1.665-.991-3.16.282-4.687l18.548-11.889c4.018-6.126 12.662-8.91 17.827-14.167 14.649-14.892 8.036-35.823 30.483-46.086 38.951-17.802 71.54 38.903 38.864 65.322-14.913 12.051-33.806 4.423-50.968 3.76zm22.954-68.419c-9.722.995-18.51 6.783-23.312 15.212-3.372 5.92-3.923 13.028-6.794 19.31-1.567 3.43-3.736 6.508-5.911 9.568l11.151 20.706c12.173 1.533 24.39 3.404 36.695 3.172 41.722-8.285 29.655-72.217-11.829-67.974zm-23.393 74.601-14.63-27.858-16.793 12.246 10.593 20.293zm-23.487 5.751-10.017-18.535c-2.551 1.352-18.304 10.688-18.73 12.221-.345 1.22 6.187 13.547 7.027 14.066 2.67 1.652 10.286-4.486 12.399-3.56 2.476 1.089 10.988 17.59 12.248 17.89 1.636-.394 3.096-1.458 4.037-2.828l-10.349-17.014c-.715-1.746 3.115-1.89 3.378-2.234zm-30.79-.877c-1.649.332.996 4.906 1.454 5.613 1.109 1.715 2.125 1.027 1.661-.763-.194-.751-2.313-5.012-3.115-4.85m281.385 248.983c2.507 3.885-2.652 2.227-4.852 2.19-4.701-.088-10.712 1.101-15.056.431-2.758-.425-1.774-2.621-1.58-2.621h21.494zM408.382 3.704l1.097 1.077c.012.863-7.159 13.078-8.218 14.38-.502.612-.846 1.05-1.743.906-.683-.538-.677-.55-.476-1.345.276-1.095 6.814-11.97 7.86-13.39.445-.601.89-1.158 1.48-1.621zM1.122 356.172h13.295c.878 0 .878 2.653 0 2.653H.683L0 357.717zM430.296 98.323c-.627.15-.946.375-1.617.131-3.354-1.214-8.375-6.426-12.273-7.684l-.715-2.159c.771-.075 1.454-.037 2.194.238.915.344 11.076 6.683 11.715 7.328.702.7.916 1.026.702 2.146zm-7.666-76.866c.789-.213 1.015.037 1.479.607-.05.713-.502 1.214-.89 1.758-1.11 1.546-7.284 7.703-8.839 8.867-1.234.926-2.601.763-2.168-.832.194-.714 9.709-10.206 10.418-10.4m16.097 51.229c-.803 0-1.624.063-2.426 0-2.564-.213-10.694-1.151-12.75-1.87-1.636-.57-1.642-2.135.313-2.122 2.558.012 10.036 1.302 12.757 1.902 1.259.275 2.407.507 2.106 2.096zM386.875.163c1.091.7-2.35 12.233-2.206 14.273-.702 1.051-2.081.594-2.113-.688-.037-1.433 1.724-10.175 2.219-11.927.245-.857 1.085-2.31 2.1-1.658m48.197 45.454c-1.824 1.389-10.067 2.183-12.612 3.535-1.454-.15-1.786-1.62-.457-2.253 1.003-.475 11.226-3.153 12.267-3.197.614-.025.796.25 1.153.682.144.319-.144 1.082-.351 1.233m-72.706 160.302c1.855-.05 3.322 2.628 3.579 4.198.696 4.218-2.582 15.469-8.443 13.735-4.676-1.382-1.292-17.764 4.858-17.927zm-.878 2.158c-1.642.482-3.955 6.539-4.181 8.235-.896 6.677 2.583 7.778 5.285 1.74.852-1.909 3.334-11.289-1.104-9.981zm-26.019-32.344c1.153.751-2.871 11.094-3.097 12.978-.489.87-1.818.225-1.755-1.202.037-.913 2.921-10.844 3.316-11.326.489-.6.846-.494 1.536-.45M198.43 131.624c2.364 2.435-3.084 4.512-.783 6.758.834.82 2.902.188 1.341 2.654-5.19 2.715-4.319-9.405-1.93-9.893.351-.069 1.122.219 1.372.475zm27.907 7.034c3.554-1.026 6.093 3.592 2.125 3.942-3.341.3-4.451-3.272-2.125-3.942"/><path d="m370.045 53.232 2.983-1.665c9.867-1.69 17.163 19.223 7.673 23.991.533 1.765 7.491 8.604 6.18 9.956-.846.15-1.203-.138-1.799-.632-1.353-1.12-6.305-9.06-6.876-9.105l-35.146 6.17-.934-2.615 29.937-14.593c.477-.732-1.749-5.92-2.369-6.958-.213-.357.138-.745-.752-.557l-27.048 21.644-1.016-1.539 27.324-22.17c-2.094-3.035 1.022-5.888 1.843-1.92zm4.018 9.699c.796.57 6.055-3.079 7.027-3.773-1.16-2.879-5.241-6.877-8.557-4.988-2.877 1.634 1.097 6.446 1.536 8.76zm7.722-1.727-6.318 4.173 4.143 8.166c4.564-1.802 4.651-8.754 2.175-12.34m-8.205 5.294-26.139 12.821 29.687-4.862z"/><path d="M347.447 88.611c1.21.407 2.552.676 3.818.826 7.885.964 17.407 2.334 25.205 2.703 25.142 1.208 37.566-24.598 25.55-45.403-9.679-16.77-33.323-21.545-46.392-5.901-7.993 9.567-6.313 24.867-16.392 33.608-.652-.519-.702-.55-.483-1.345.345-1.233 3.404-4.668 4.325-6.308 6.745-12.014 4.012-24.829 18.241-33.095 27.901-16.207 57.475 17.69 43.509 44.747-11.709 22.702-35.598 13.622-55.832 12.365-.803.15-1.881-1.79-1.555-2.203zm-46.536 16.363 15.834-8.34 1.881 1.044c0 1.346-15.891 8.51-15.934 9.73-.025.695 1.178.62 1.78.463 3.441-.882 9.816-5.275 13.42-6.952.602-.281 2.232-1.2 2.508-.125.369 1.427-.514 1.865-1.461 2.503-4.356 2.935-10.832 4.762-15.364 7.703-1.416.376-2.551-2.096-.89-2.246l-.451-1.114-1.323.45-2.451-6.213 16.85-9.705c.915.65.978 2.027.219 2.872-3.943 2.803-10.092 5.024-13.721 7.978-.74.601-1.066.939-.903 1.965zm2.658 7.077 18.065-7.452c1.135-.301 1.361.688 1.862 1.489l-17.257 8.448c-1.498.513-2.839-1.108-2.67-2.485m17.213-1.714 9.49 15.549c.684 1.114.138 1.809-.777 2.516l-11.214-16.664-.082-1.013 2.589-.394z"/></g><defs><clipPath id="a"><path fill="#fff" d="M0 0h577v359H0z"/></clipPath></defs></svg>