<svg xmlns="http://www.w3.org/2000/svg" viewBox="0 0 400 400" fill="none" stroke="#F377DE" stroke-width="2" stroke-linecap="round" stroke-linejoin="round">
  <!-- Analysis/Research Illustration - Magnifying glass with data chart -->
  
  <!-- Magnifying glass circle -->
  <circle cx="160" cy="160" r="80" />
  
  <!-- Magnifying glass handle -->
  <line x1="220" y1="220" x2="300" y2="300" stroke-width="4" />
  
  <!-- Bar chart inside magnifying glass -->
  <line x1="110" y1="200" x2="110" y2="140" />
  <line x1="140" y1="200" x2="140" y2="120" />
  <line x1="170" y1="200" x2="170" y2="160" />
  <line x1="200" y1="200" x2="200" y2="130" />
  
  <!-- Data points/dots -->
  <circle cx="110" cy="135" r="5" fill="#F377DE" />
  <circle cx="140" cy="115" r="5" fill="#F377DE" />
  <circle cx="170" cy="155" r="5" fill="#F377DE" />
  <circle cx="200" cy="125" r="5" fill="#F377DE" />
  
  <!-- Trend line -->
  <polyline points="110,135 140,115 170,155 200,125" />
  
  <!-- Floating data elements -->
  <rect x="280" y="80" width="60" height="40" rx="5" />
  <line x1="290" y1="95" x2="330" y2="95" />
  <line x1="290" y1="105" x2="320" y2="105" />
  
  <!-- Document/report -->
  <rect x="60" y="280" width="80" height="100" rx="5" />
  <line x1="75" y1="305" x2="125" y2="305" />
  <line x1="75" y1="325" x2="125" y2="325" />
  <line x1="75" y1="345" x2="110" y2="345" />
  <line x1="75" y1="365" x2="120" y2="365" />
  
  <!-- Checkmark -->
  <polyline points="85,355 95,365 115,340" stroke-width="3" />
  
  <!-- Decorative circles -->
  <circle cx="320" cy="180" r="15" />
  <circle cx="350" cy="220" r="10" />
  <circle cx="70" cy="250" r="8" />
</svg>
